<?xml version="1.0" encoding="utf-8"?><svg xmlns="http://www.w3.org/2000/svg" xmlns:xlink="http://www.w3.org/1999/xlink"><symbol viewBox="0 0 24 24" id="ac_unit" xmlns="http://www.w3.org/2000/svg"><path d="M0 0h24v24H0z" fill="none"/><path d="M22 11h-4.17l3.24-3.24-1.41-1.42L15 11h-2V9l4.66-4.66-1.42-1.41L13 6.17V2h-2v4.17L7.76 2.93 6.34 4.34 11 9v2H9L4.34 6.34 2.93 7.76 6.17 11H2v2h4.17l-3.24 3.24 1.41 1.42L9 13h2v2l-4.66 4.66 1.42 1.41L11 17.83V22h2v-4.17l3.24 3.24 1.42-1.41L13 15v-2h2l4.66 4.66 1.41-1.42L17.83 13H22z"/></symbol><symbol viewBox="0 0 24 24" id="accessibility_new" xmlns="http://www.w3.org/2000/svg"><path d="M0 0h24v24H0z" fill="none"/><path d="M20.5 6c-2.61.7-5.67 1-8.5 1s-5.89-.3-8.5-1L3 8c1.86.5 4 .83 6 1v13h2v-6h2v6h2V9c2-.17 4.14-.5 6-1l-.5-2zM12 6c1.1 0 2-.9 2-2s-.9-2-2-2-2 .9-2 2 .9 2 2 2z"/></symbol><symbol viewBox="0 0 24 24" id="accessible" xmlns="http://www.w3.org/2000/svg"><path d="M0 0h24v24H0z" fill="none"/><circle cx="12" cy="4" r="2"/><path d="M19 13v-2c-1.54.02-3.09-.75-4.07-1.83l-1.29-1.43c-.17-.19-.38-.34-.61-.45-.01 0-.01-.01-.02-.01H13c-.35-.2-.75-.3-1.19-.26C10.76 7.11 10 8.04 10 9.09V15c0 1.1.9 2 2 2h5v5h2v-5.5c0-1.1-.9-2-2-2h-3v-3.45c1.29 1.07 3.25 1.94 5 1.95zm-6.17 5c-.41 1.16-1.52 2-2.83 2-1.66 0-3-1.34-3-3 0-1.31.84-2.41 2-2.83V12.1a5 5 0 105.9 5.9h-2.07z"/></symbol><symbol viewBox="0 0 24 24" id="account_balance" xmlns="http://www.w3.org/2000/svg"><path fill="none" d="M0 0h24v24H0z"/><path d="M4 10h3v7H4zM10.5 10h3v7h-3zM2 19h20v3H2zM17 10h3v7h-3zM12 1L2 6v2h20V6z"/></symbol><symbol viewBox="0 0 24 24" id="account_box" xmlns="http://www.w3.org/2000/svg"><path d="M0 0h24v24H0z" fill="none"/><path d="M3 5v14a2 2 0 002 2h14c1.1 0 2-.9 2-2V5c0-1.1-.9-2-2-2H5a2 2 0 00-2 2zm12 4c0 1.66-1.34 3-3 3s-3-1.34-3-3 1.34-3 3-3 3 1.34 3 3zm-9 8c0-2 4-3.1 6-3.1s6 1.1 6 3.1v1H6v-1z"/></symbol><symbol viewBox="0 0 24 24" id="account_circle" xmlns="http://www.w3.org/2000/svg"><path d="M0 0h24v24H0z" fill="none"/><path d="M12 2C6.48 2 2 6.48 2 12s4.48 10 10 10 10-4.48 10-10S17.52 2 12 2zm0 3c1.66 0 3 1.34 3 3s-1.34 3-3 3-3-1.34-3-3 1.34-3 3-3zm0 14.2a7.2 7.2 0 01-6-3.22c.03-1.99 4-3.08 6-3.08 1.99 0 5.97 1.09 6 3.08a7.2 7.2 0 01-6 3.22z"/></symbol><symbol viewBox="0 0 24 24" id="add" xmlns="http://www.w3.org/2000/svg"><path d="M0 0h24v24H0z" fill="none"/><path d="M19 13h-6v6h-2v-6H5v-2h6V5h2v6h6v2z"/></symbol><symbol viewBox="0 0 24 24" id="add_circle" xmlns="http://www.w3.org/2000/svg"><path d="M0 0h24v24H0z" fill="none"/><path d="M12 2C6.48 2 2 6.48 2 12s4.48 10 10 10 10-4.48 10-10S17.52 2 12 2zm5 11h-4v4h-2v-4H7v-2h4V7h2v4h4v2z"/></symbol><symbol viewBox="0 0 24 24" id="add_circle_outline" xmlns="http://www.w3.org/2000/svg"><path d="M0 0h24v24H0z" fill="none"/><path d="M13 7h-2v4H7v2h4v4h2v-4h4v-2h-4V7zm-1-5C6.48 2 2 6.48 2 12s4.48 10 10 10 10-4.48 10-10S17.52 2 12 2zm0 18c-4.41 0-8-3.59-8-8s3.59-8 8-8 8 3.59 8 8-3.59 8-8 8z"/></symbol><symbol viewBox="0 0 24 24" id="alarm" xmlns="http://www.w3.org/2000/svg"><path d="M0 0h24v24H0z" fill="none"/><path d="M22 5.72l-4.6-3.86-1.29 1.53 4.6 3.86L22 5.72zM7.88 3.39L6.6 1.86 2 5.71l1.29 1.53 4.59-3.85zM12.5 8H11v6l4.75 2.85.75-1.23-4-2.37V8zM12 4c-4.97 0-9 4.03-9 9s4.02 9 9 9a9 9 0 000-18zm0 16c-3.87 0-7-3.13-7-7s3.13-7 7-7 7 3.13 7 7-3.13 7-7 7z"/></symbol><symbol viewBox="0 0 24 24" id="alternate_email" xmlns="http://www.w3.org/2000/svg"><path d="M0 0h24v24H0z" fill="none"/><path d="M12 2C6.48 2 2 6.48 2 12s4.48 10 10 10h5v-2h-5c-4.34 0-8-3.66-8-8s3.66-8 8-8 8 3.66 8 8v1.43c0 .79-.71 1.57-1.5 1.57s-1.5-.78-1.5-1.57V12c0-2.76-2.24-5-5-5s-5 2.24-5 5 2.24 5 5 5c1.38 0 2.64-.56 3.54-1.47.65.89 1.77 1.47 2.96 1.47 1.97 0 3.5-1.6 3.5-3.57V12c0-5.52-4.48-10-10-10zm0 13c-1.66 0-3-1.34-3-3s1.34-3 3-3 3 1.34 3 3-1.34 3-3 3z"/></symbol><symbol viewBox="0 0 24 24" id="announcement" xmlns="http://www.w3.org/2000/svg"><path d="M0 0h24v24H0z" fill="none"/><path d="M20 2H4c-1.1 0-1.99.9-1.99 2L2 22l4-4h14c1.1 0 2-.9 2-2V4c0-1.1-.9-2-2-2zm-7 9h-2V5h2v6zm0 4h-2v-2h2v2z"/></symbol><symbol viewBox="0 0 24 24" id="arrow_back" xmlns="http://www.w3.org/2000/svg"><path d="M0 0h24v24H0z" fill="none"/><path d="M20 11H7.83l5.59-5.59L12 4l-8 8 8 8 1.41-1.41L7.83 13H20v-2z"/></symbol><symbol viewBox="0 0 24 24" id="arrow_downward" xmlns="http://www.w3.org/2000/svg"><path d="M0 0h24v24H0V0z" fill="none"/><path d="M20 12l-1.41-1.41L13 16.17V4h-2v12.17l-5.58-5.59L4 12l8 8 8-8z"/></symbol><symbol viewBox="0 0 24 24" id="arrow_drop_down" xmlns="http://www.w3.org/2000/svg"><path d="M0 0h24v24H0z" fill="none"/><path d="M7 10l5 5 5-5z"/></symbol><symbol viewBox="0 0 24 24" id="arrow_forward" xmlns="http://www.w3.org/2000/svg"><path d="M0 0h24v24H0z" fill="none"/><path d="M12 4l-1.41 1.41L16.17 11H4v2h12.17l-5.58 5.59L12 20l8-8z"/></symbol><symbol viewBox="0 0 24 24" id="arrow_upward" xmlns="http://www.w3.org/2000/svg"><path d="M0 0h24v24H0V0z" fill="none"/><path d="M4 12l1.41 1.41L11 7.83V20h2V7.83l5.58 5.59L20 12l-8-8-8 8z"/></symbol><symbol viewBox="0 0 24 24" id="attach_file" xmlns="http://www.w3.org/2000/svg"><path d="M0 0h24v24H0z" fill="none"/><path d="M16.5 6v11.5c0 2.21-1.79 4-4 4s-4-1.79-4-4V5a2.5 2.5 0 015 0v10.5c0 .55-.45 1-1 1s-1-.45-1-1V6H10v9.5a2.5 2.5 0 005 0V5c0-2.21-1.79-4-4-4S7 2.79 7 5v12.5c0 3.04 2.46 5.5 5.5 5.5s5.5-2.46 5.5-5.5V6h-1.5z"/></symbol><symbol viewBox="0 0 24 24" id="baby_changing_station" xmlns="http://www.w3.org/2000/svg"><path fill="none" d="M0 0h24v24H0z"/><path d="M14 8v2h-3L8.31 8.82 7 12.75V22H3V12l1.58-4.63A2.003 2.003 0 017.3 6.18l4.15 1.83L14 8zM8 1c-1.1 0-2 .9-2 2s.9 2 2 2 2-.9 2-2-.9-2-2-2zm1 18h12v-2H9v2zm10.5-3c.83 0 1.5-.67 1.5-1.5s-.67-1.5-1.5-1.5-1.5.67-1.5 1.5.67 1.5 1.5 1.5zM13 12c0-.55-.45-1-1-1H9v2h2v1c0 1.1.9 2 2 2h2c1.1 0 2-.9 2-2v-3h-2v2h-2v-1z"/></symbol><symbol viewBox="0 0 24 24" id="bookmark" xmlns="http://www.w3.org/2000/svg"><path d="M0 0h24v24H0z" fill="none"/><path d="M17 3H7c-1.1 0-1.99.9-1.99 2L5 21l7-3 7 3V5c0-1.1-.9-2-2-2z"/></symbol><symbol viewBox="0 0 24 24" id="build" xmlns="http://www.w3.org/2000/svg"><path clip-rule="evenodd" d="M0 0h24v24H0z" fill="none"/><path d="M22.7 19l-9.1-9.1c.9-2.3.4-5-1.5-6.9-2-2-5-2.4-7.4-1.3L9 6 6 9 1.6 4.7C.4 7.1.9 10.1 2.9 12.1c1.9 1.9 4.6 2.4 6.9 1.5l9.1 9.1c.4.4 1 .4 1.4 0l2.3-2.3c.5-.4.5-1.1.1-1.4z"/></symbol><symbol viewBox="0 0 24 24" id="calendar_today" xmlns="http://www.w3.org/2000/svg"><path d="M0 0h24v24H0z" fill="none"/><path d="M20 3h-1V1h-2v2H7V1H5v2H4c-1.1 0-2 .9-2 2v16c0 1.1.9 2 2 2h16c1.1 0 2-.9 2-2V5c0-1.1-.9-2-2-2zm0 18H4V8h16v13z"/></symbol><symbol viewBox="0 0 24 24" id="campaign" xmlns="http://www.w3.org/2000/svg"><path d="M0 0h24v24H0z" fill="none"/><path d="M18 11v2h4v-2h-4zm-2 6.61c.96.71 2.21 1.65 3.2 2.39.4-.53.8-1.07 1.2-1.6-.99-.74-2.24-1.68-3.2-2.4-.4.54-.8 1.08-1.2 1.61zM20.4 5.6c-.4-.53-.8-1.07-1.2-1.6-.99.74-2.24 1.68-3.2 2.4.4.53.8 1.07 1.2 1.6.96-.72 2.21-1.65 3.2-2.4zM4 9c-1.1 0-2 .9-2 2v2c0 1.1.9 2 2 2h1v4h2v-4h1l5 3V6L8 9H4zm11.5 3c0-1.33-.58-2.53-1.5-3.35v6.69c.92-.81 1.5-2.01 1.5-3.34z"/></symbol><symbol viewBox="0 0 20 20" id="car_rental" xmlns="http://www.w3.org/2000/svg"><path fill="none" d="M0 0h20v20H0z"/><path d="M12.84 8H7.19c-.41 0-.79.26-.93.65L5 12v4.5c0 .28.22.5.5.5H6c.28 0 .5-.22.5-.5v-1h7v1c0 .28.22.5.5.5h.5c.28 0 .5-.22.5-.5V12l-1.22-3.34a.992.992 0 00-.94-.66zM7 14.5c-.41 0-.75-.34-.75-.75S6.59 13 7 13s.75.34.75.75-.34.75-.75.75zm6 0c-.41 0-.75-.34-.75-.75s.34-.75.75-.75.75.34.75.75-.34.75-.75.75zM6.07 12l1.12-3h5.65l1.1 3H6.07zM8.93 3.5C8.71 2.64 7.93 2 7 2c-1.1 0-2 .9-2 2s.9 2 2 2c.93 0 1.71-.64 1.93-1.5H13V6h1V4.5h1v-1H8.93zM7 5c-.55 0-1-.45-1-1s.45-1 1-1 1 .45 1 1-.45 1-1 1z"/></symbol><symbol viewBox="0 0 24 24" id="charging_station" xmlns="http://www.w3.org/2000/svg"><path fill="none" d="M0 0h24v24H0z"/><path d="M14.5 11l-3 6v-4h-2l3-6v4h2zM7 1h10c1.1 0 2 .9 2 2v18c0 1.1-.9 2-2 2H7c-1.1 0-2-.9-2-2V3c0-1.1.9-2 2-2zm0 5v12h10V6H7z"/></symbol><symbol viewBox="0 0 24 24" id="chat" xmlns="http://www.w3.org/2000/svg"><path d="M0 0h24v24H0z" fill="none"/><path d="M20 2H4c-1.1 0-1.99.9-1.99 2L2 22l4-4h14c1.1 0 2-.9 2-2V4c0-1.1-.9-2-2-2zM6 9h12v2H6V9zm8 5H6v-2h8v2zm4-6H6V6h12v2z"/></symbol><symbol viewBox="0 0 24 24" id="check" xmlns="http://www.w3.org/2000/svg"><path d="M0 0h24v24H0z" fill="none"/><path d="M9 16.17L4.83 12l-1.42 1.41L9 19 21 7l-1.41-1.41z"/></symbol><symbol viewBox="0 0 24 24" id="check_circle" xmlns="http://www.w3.org/2000/svg"><path d="M0 0h24v24H0z" fill="none"/><path d="M12 2C6.48 2 2 6.48 2 12s4.48 10 10 10 10-4.48 10-10S17.52 2 12 2zm-2 15l-5-5 1.41-1.41L10 14.17l7.59-7.59L19 8l-9 9z"/></symbol><symbol viewBox="0 0 24 24" id="check_circle_outline" xmlns="http://www.w3.org/2000/svg"><path d="M0 0h24v24H0V0zm0 0h24v24H0V0z" fill="none"/><path d="M16.59 7.58L10 14.17l-3.59-3.58L5 12l5 5 8-8zM12 2C6.48 2 2 6.48 2 12s4.48 10 10 10 10-4.48 10-10S17.52 2 12 2zm0 18c-4.42 0-8-3.58-8-8s3.58-8 8-8 8 3.58 8 8-3.58 8-8 8z"/></symbol><symbol viewBox="0 0 24 24" id="checkroom" xmlns="http://www.w3.org/2000/svg"><path fill="none" d="M0 0h24v24H0z"/><path d="M21.6 18.2L13 11.75v-.91a3.496 3.496 0 00-.18-6.75A3.51 3.51 0 008.5 7.5h2c0-.83.67-1.5 1.5-1.5s1.5.67 1.5 1.5c0 .84-.69 1.52-1.53 1.5-.54-.01-.97.45-.97.99v1.76L2.4 18.2c-.77.58-.36 1.8.6 1.8h18c.96 0 1.37-1.22.6-1.8zM6 18l6-4.5 6 4.5H6z"/></symbol><symbol viewBox="0 0 24 24" id="child_friendly" xmlns="http://www.w3.org/2000/svg"><path d="M0 0h24v24H0z" fill="none"/><path d="M13 2v8h8c0-4.42-3.58-8-8-8zm6.32 13.89A7.948 7.948 0 0021 11H6.44l-.95-2H2v2h2.22s1.89 4.07 2.12 4.42c-1.1.59-1.84 1.75-1.84 3.08C4.5 20.43 6.07 22 8 22c1.76 0 3.22-1.3 3.46-3h2.08c.24 1.7 1.7 3 3.46 3 1.93 0 3.5-1.57 3.5-3.5 0-1.04-.46-1.97-1.18-2.61zM8 20c-.83 0-1.5-.67-1.5-1.5S7.17 17 8 17s1.5.67 1.5 1.5S8.83 20 8 20zm9 0c-.83 0-1.5-.67-1.5-1.5S16.17 17 17 17s1.5.67 1.5 1.5S17.83 20 17 20z"/></symbol><symbol viewBox="0 0 24 24" id="clean_hands" xmlns="http://www.w3.org/2000/svg"><path fill="none" d="M0 0h24v24H0z"/><path d="M16.99 5l.63 1.37 1.37.63-1.37.63L16.99 9l-.63-1.37L14.99 7l1.37-.63.63-1.37M11 6.13V4h2c.57 0 1.1.17 1.55.45l1.43-1.43A4.899 4.899 0 0013 2H7.5v2H9v2.14A5.007 5.007 0 005.26 9.5h3.98L15 11.65v-.62a5 5 0 00-4-4.9zM1 22h4V11H1v11zm19-5h-7l-2.09-.73.33-.94L13 16h2.82c.65 0 1.18-.53 1.18-1.18 0-.49-.31-.93-.77-1.11L8.97 11H7v9.02L14 22l8-3c-.01-1.1-.89-2-2-2zm0-3c1.1 0 2-.9 2-2s-2-4-2-4-2 2.9-2 4 .9 2 2 2z"/></symbol><symbol viewBox="0 0 24 24" id="close" xmlns="http://www.w3.org/2000/svg"><path d="M0 0h24v24H0z" fill="none"/><path d="M19 6.41L17.59 5 12 10.59 6.41 5 5 6.41 10.59 12 5 17.59 6.41 19 12 13.41 17.59 19 19 17.59 13.41 12z"/></symbol><symbol viewBox="0 0 24 24" id="closed_caption" xmlns="http://www.w3.org/2000/svg"><path d="M0 0h24v24H0z" fill="none"/><path d="M19 4H5a2 2 0 00-2 2v12a2 2 0 002 2h14c1.1 0 2-.9 2-2V6c0-1.1-.9-2-2-2zm-8 7H9.5v-.5h-2v3h2V13H11v1c0 .55-.45 1-1 1H7c-.55 0-1-.45-1-1v-4c0-.55.45-1 1-1h3c.55 0 1 .45 1 1v1zm7 0h-1.5v-.5h-2v3h2V13H18v1c0 .55-.45 1-1 1h-3c-.55 0-1-.45-1-1v-4c0-.55.45-1 1-1h3c.55 0 1 .45 1 1v1z"/></symbol><symbol viewBox="0 0 24 24" id="cloud" xmlns="http://www.w3.org/2000/svg"><path d="M0 0h24v24H0z" fill="none"/><path d="M19.35 10.04A7.49 7.49 0 0012 4C9.11 4 6.6 5.64 5.35 8.04A5.994 5.994 0 000 14c0 3.31 2.69 6 6 6h13c2.76 0 5-2.24 5-5 0-2.64-2.05-4.78-4.65-4.96z"/></symbol><symbol viewBox="0 0 24 24" id="code" xmlns="http://www.w3.org/2000/svg"><path d="M0 0h24v24H0V0z" fill="none"/><path d="M9.4 16.6L4.8 12l4.6-4.6L8 6l-6 6 6 6 1.4-1.4zm5.2 0l4.6-4.6-4.6-4.6L16 6l6 6-6 6-1.4-1.4z"/></symbol><symbol viewBox="0 0 24 24" id="computer" xmlns="http://www.w3.org/2000/svg"><path d="M0 0h24v24H0z" fill="none"/><path d="M20 18c1.1 0 1.99-.9 1.99-2L22 6c0-1.1-.9-2-2-2H4c-1.1 0-2 .9-2 2v10c0 1.1.9 2 2 2H0v2h24v-2h-4zM4 6h16v10H4V6z"/></symbol><symbol viewBox="0 0 24 24" id="content_copy" xmlns="http://www.w3.org/2000/svg"><path d="M0 0h24v24H0z" fill="none"/><path d="M16 1H4c-1.1 0-2 .9-2 2v14h2V3h12V1zm3 4H8c-1.1 0-2 .9-2 2v14c0 1.1.9 2 2 2h11c1.1 0 2-.9 2-2V7c0-1.1-.9-2-2-2zm0 16H8V7h11v14z"/></symbol><symbol viewBox="0 0 24 24" id="coronavirus" xmlns="http://www.w3.org/2000/svg"><path fill="none" d="M0 0h24v24H0z"/><path d="M21.25 10.5c-.41 0-.75.34-.75.75h-1.54a6.978 6.978 0 00-1.52-3.65l1.09-1.09.01.01c.29.29.77.29 1.06 0s.29-.77 0-1.06L18.54 4.4a.754.754 0 00-1.06 0c-.29.29-.29.76-.01 1.05l-1.09 1.09a7.015 7.015 0 00-3.64-1.51V3.5h.01c.41 0 .75-.34.75-.75S13.16 2 12.75 2h-1.5c-.41 0-.75.34-.75.75s.33.74.74.75v1.55c-1.37.14-2.62.69-3.64 1.51L6.51 5.47l.01-.01c.29-.29.29-.77 0-1.06a.754.754 0 00-1.06 0L4.4 5.46c-.29.29-.29.77 0 1.06.29.29.76.29 1.05.01l1.09 1.09a6.89 6.89 0 00-1.5 3.63H3.5c0-.41-.34-.75-.75-.75s-.75.34-.75.75v1.5c0 .41.34.75.75.75s.75-.34.75-.75h1.54c.15 1.37.69 2.61 1.5 3.63l-1.09 1.09a.742.742 0 00-1.05.01c-.29.29-.29.77 0 1.06l1.06 1.06c.29.29.77.29 1.06 0 .29-.29.29-.77 0-1.06l-.01-.01 1.09-1.09c1.02.82 2.26 1.36 3.63 1.51v1.55c-.41.01-.74.34-.74.75s.34.75.75.75h1.5c.41 0 .75-.34.75-.75s-.34-.75-.75-.75h-.01v-1.54c1.37-.14 2.62-.69 3.64-1.51l1.09 1.09c-.29.29-.28.76.01 1.05.29.29.77.29 1.06 0l1.06-1.06c.29-.29.29-.77 0-1.06a.754.754 0 00-1.06 0l-.01.01-1.09-1.09a7.025 7.025 0 001.52-3.65h1.54c0 .41.34.75.75.75s.75-.34.75-.75v-1.5c.01-.4-.33-.74-.74-.74zM13.75 8c.55 0 1 .45 1 1s-.45 1-1 1-1-.45-1-1 .45-1 1-1zM12 13c-.55 0-1-.45-1-1s.45-1 1-1 1 .45 1 1-.45 1-1 1zm-1.75-5c.55 0 1 .45 1 1s-.45 1-1 1-1-.45-1-1 .45-1 1-1zM8.5 13c-.55 0-1-.45-1-1s.45-1 1-1 1 .45 1 1-.45 1-1 1zm1.75 3c-.55 0-1-.45-1-1s.45-1 1-1 1 .45 1 1-.45 1-1 1zm3.5 0c-.55 0-1-.45-1-1s.45-1 1-1 1 .45 1 1-.45 1-1 1zm.75-4c0-.55.45-1 1-1s1 .45 1 1-.45 1-1 1-1-.45-1-1z"/></symbol><symbol viewBox="0 0 24 24" id="credit_card" xmlns="http://www.w3.org/2000/svg"><path d="M0 0h24v24H0z" fill="none"/><path d="M20 4H4c-1.11 0-1.99.89-1.99 2L2 18c0 1.11.89 2 2 2h16c1.11 0 2-.89 2-2V6c0-1.11-.89-2-2-2zm0 14H4v-6h16v6zm0-10H4V6h16v2z"/></symbol><symbol viewBox="0 0 24 24" id="delete" xmlns="http://www.w3.org/2000/svg"><path d="M0 0h24v24H0z" fill="none"/><path d="M6 19c0 1.1.9 2 2 2h8c1.1 0 2-.9 2-2V7H6v12zM19 4h-3.5l-1-1h-5l-1 1H5v2h14V4z"/></symbol><symbol viewBox="0 0 24 24" id="device_thermostat" xmlns="http://www.w3.org/2000/svg"><path d="M0 0h24v24H0z" fill="none"/><path d="M15 13V5c0-1.66-1.34-3-3-3S9 3.34 9 5v8c-1.21.91-2 2.37-2 4 0 2.76 2.24 5 5 5s5-2.24 5-5c0-1.63-.79-3.09-2-4zm-4-8c0-.55.45-1 1-1s1 .45 1 1h-1v1h1v2h-1v1h1v2h-2V5z"/></symbol><symbol viewBox="0 0 24 24" id="dialpad" xmlns="http://www.w3.org/2000/svg"><path d="M0 0h24v24H0z" fill="none"/><path d="M12 19c-1.1 0-2 .9-2 2s.9 2 2 2 2-.9 2-2-.9-2-2-2zM6 1c-1.1 0-2 .9-2 2s.9 2 2 2 2-.9 2-2-.9-2-2-2zm0 6c-1.1 0-2 .9-2 2s.9 2 2 2 2-.9 2-2-.9-2-2-2zm0 6c-1.1 0-2 .9-2 2s.9 2 2 2 2-.9 2-2-.9-2-2-2zm12-8c1.1 0 2-.9 2-2s-.9-2-2-2-2 .9-2 2 .9 2 2 2zm-6 8c-1.1 0-2 .9-2 2s.9 2 2 2 2-.9 2-2-.9-2-2-2zm6 0c-1.1 0-2 .9-2 2s.9 2 2 2 2-.9 2-2-.9-2-2-2zm0-6c-1.1 0-2 .9-2 2s.9 2 2 2 2-.9 2-2-.9-2-2-2zm-6 0c-1.1 0-2 .9-2 2s.9 2 2 2 2-.9 2-2-.9-2-2-2zm0-6c-1.1 0-2 .9-2 2s.9 2 2 2 2-.9 2-2-.9-2-2-2z"/></symbol><symbol viewBox="0 0 24 24" id="directions" xmlns="http://www.w3.org/2000/svg"><path d="M0 0h24v24H0z" fill="none"/><path d="M21.71 11.29l-9-9a.996.996 0 00-1.41 0l-9 9a.996.996 0 000 1.41l9 9c.39.39 1.02.39 1.41 0l9-9a.996.996 0 000-1.41zM14 14.5V12h-4v3H8v-4c0-.55.45-1 1-1h5V7.5l3.5 3.5-3.5 3.5z"/></symbol><symbol viewBox="0 0 24 24" id="directions_bike" xmlns="http://www.w3.org/2000/svg"><path d="M0 0h24v24H0z" fill="none"/><path d="M15.5 5.5c1.1 0 2-.9 2-2s-.9-2-2-2-2 .9-2 2 .9 2 2 2zM5 12c-2.8 0-5 2.2-5 5s2.2 5 5 5 5-2.2 5-5-2.2-5-5-5zm0 8.5c-1.9 0-3.5-1.6-3.5-3.5s1.6-3.5 3.5-3.5 3.5 1.6 3.5 3.5-1.6 3.5-3.5 3.5zm5.8-10l2.4-2.4.8.8c1.3 1.3 3 2.1 5.1 2.1V9c-1.5 0-2.7-.6-3.6-1.5l-1.9-1.9c-.5-.4-1-.6-1.6-.6s-1.1.2-1.4.6L7.8 8.4c-.4.4-.6.9-.6 1.4 0 .6.2 1.1.6 1.4L11 14v5h2v-6.2l-2.2-2.3zM19 12c-2.8 0-5 2.2-5 5s2.2 5 5 5 5-2.2 5-5-2.2-5-5-5zm0 8.5c-1.9 0-3.5-1.6-3.5-3.5s1.6-3.5 3.5-3.5 3.5 1.6 3.5 3.5-1.6 3.5-3.5 3.5z"/></symbol><symbol viewBox="0 0 24 24" id="directions_boat" xmlns="http://www.w3.org/2000/svg"><path d="M0 0h24v24H0z" fill="none"/><path d="M20 21c-1.39 0-2.78-.47-4-1.32-2.44 1.71-5.56 1.71-8 0C6.78 20.53 5.39 21 4 21H2v2h2c1.38 0 2.74-.35 4-.99a8.752 8.752 0 008 0c1.26.65 2.62.99 4 .99h2v-2h-2zM3.95 19H4c1.6 0 3.02-.88 4-2 .98 1.12 2.4 2 4 2s3.02-.88 4-2c.98 1.12 2.4 2 4 2h.05l1.89-6.68c.08-.26.06-.54-.06-.78s-.34-.42-.6-.5L20 10.62V6c0-1.1-.9-2-2-2h-3V1H9v3H6c-1.1 0-2 .9-2 2v4.62l-1.29.42a1.007 1.007 0 00-.66 1.28L3.95 19zM6 6h12v3.97L12 8 6 9.97V6z"/></symbol><symbol viewBox="0 0 24 24" id="directions_bus" xmlns="http://www.w3.org/2000/svg"><path d="M0 0h24v24H0z" fill="none"/><path d="M4 16c0 .88.39 1.67 1 2.22V20c0 .55.45 1 1 1h1c.55 0 1-.45 1-1v-1h8v1c0 .55.45 1 1 1h1c.55 0 1-.45 1-1v-1.78c.61-.55 1-1.34 1-2.22V6c0-3.5-3.58-4-8-4s-8 .5-8 4v10zm3.5 1c-.83 0-1.5-.67-1.5-1.5S6.67 14 7.5 14s1.5.67 1.5 1.5S8.33 17 7.5 17zm9 0c-.83 0-1.5-.67-1.5-1.5s.67-1.5 1.5-1.5 1.5.67 1.5 1.5-.67 1.5-1.5 1.5zm1.5-6H6V6h12v5z"/></symbol><symbol viewBox="0 0 24 24" id="directions_car" xmlns="http://www.w3.org/2000/svg"><path d="M0 0h24v24H0z" fill="none"/><path d="M18.92 6.01C18.72 5.42 18.16 5 17.5 5h-11c-.66 0-1.21.42-1.42 1.01L3 12v8c0 .55.45 1 1 1h1c.55 0 1-.45 1-1v-1h12v1c0 .55.45 1 1 1h1c.55 0 1-.45 1-1v-8l-2.08-5.99zM6.5 16c-.83 0-1.5-.67-1.5-1.5S5.67 13 6.5 13s1.5.67 1.5 1.5S7.33 16 6.5 16zm11 0c-.83 0-1.5-.67-1.5-1.5s.67-1.5 1.5-1.5 1.5.67 1.5 1.5-.67 1.5-1.5 1.5zM5 11l1.5-4.5h11L19 11H5z"/></symbol><symbol viewBox="0 0 24 24" id="directions_transit" xmlns="http://www.w3.org/2000/svg"><path d="M0 0h24v24H0z" fill="none"/><path d="M12 2c-4.42 0-8 .5-8 4v9.5C4 17.43 5.57 19 7.5 19L6 20.5v.5h12v-.5L16.5 19c1.93 0 3.5-1.57 3.5-3.5V6c0-3.5-3.58-4-8-4zM7.5 17c-.83 0-1.5-.67-1.5-1.5S6.67 14 7.5 14s1.5.67 1.5 1.5S8.33 17 7.5 17zm3.5-6H6V6h5v5zm5.5 6c-.83 0-1.5-.67-1.5-1.5s.67-1.5 1.5-1.5 1.5.67 1.5 1.5-.67 1.5-1.5 1.5zm1.5-6h-5V6h5v5z"/></symbol><symbol viewBox="0 0 24 24" id="directions_walk" xmlns="http://www.w3.org/2000/svg"><path d="M0 0h24v24H0z" fill="none"/><path d="M13.5 5.5c1.1 0 2-.9 2-2s-.9-2-2-2-2 .9-2 2 .9 2 2 2zM9.8 8.9L7 23h2.1l1.8-8 2.1 2v6h2v-7.5l-2.1-2 .6-3C14.8 12 16.8 13 19 13v-2c-1.9 0-3.5-1-4.3-2.4l-1-1.6c-.4-.6-1-1-1.7-1-.3 0-.5.1-.8.1L6 8.3V13h2V9.6l1.8-.7"/></symbol><symbol viewBox="0 0 24 24" id="do_not_disturb" xmlns="http://www.w3.org/2000/svg"><path d="M0 0h24v24H0z" fill="none"/><path d="M12 2C6.48 2 2 6.48 2 12s4.48 10 10 10 10-4.48 10-10S17.52 2 12 2zm0 18c-4.42 0-8-3.58-8-8 0-1.85.63-3.55 1.69-4.9L16.9 18.31A7.902 7.902 0 0112 20zm6.31-3.1L7.1 5.69A7.902 7.902 0 0112 4c4.42 0 8 3.58 8 8 0 1.85-.63 3.55-1.69 4.9z"/></symbol><symbol viewBox="0 0 24 24" id="do_not_step" xmlns="http://www.w3.org/2000/svg"><path fill="none" d="M0 0h24v24H0z"/><path d="M1.39 4.22l7.9 7.9c.18.2.18.5-.01.7a.485.485 0 01-.7 0L6.87 11.1c-.11.4-.26.78-.45 1.12l1.4 1.4c.2.2.2.51 0 .71a.485.485 0 01-.7 0l-1.27-1.27c-.24.29-.5.56-.77.8l1.28 1.28c.2.2.2.51 0 .71-.1.1-.23.15-.36.15s-.26-.05-.35-.15l-1.38-1.38c-.69.46-1.39.79-1.97 1.02-.78.31-1.3 1.04-1.3 1.88V20h9.5l3.33-3.33 5.94 5.94 1.41-1.41L2.81 2.81 1.39 4.22zm17.12 11.46l-1.41-1.41 4.48-4.48L23 11.2l-4.49 4.48zm2.37-6.6l-4.48 4.48-7.1-7.09L13.8 2l7.08 7.08z"/></symbol><symbol viewBox="0 0 24 24" id="do_not_touch" xmlns="http://www.w3.org/2000/svg"><path fill="none" d="M0 0h24v24H0z"/><path d="M13 10.17l-2.5-2.5V2.25a1.25 1.25 0 012.5 0v7.92zm7 2.58v-7.5a1.25 1.25 0 00-2.5 0V11h-1V3.25a1.25 1.25 0 00-2.5 0v7.92l6 6v-4.42zM9.5 4.25C9.5 3.56 8.94 3 8.25 3c-.67 0-1.2.53-1.24 1.18L9.5 6.67V4.25zm3.5 5.92l-2.5-2.5V2.25a1.25 1.25 0 012.5 0v7.92zm7 2.58v-7.5a1.25 1.25 0 00-2.5 0V11h-1V3.25a1.25 1.25 0 00-2.5 0v7.92l6 6v-4.42zM9.5 4.25C9.5 3.56 8.94 3 8.25 3c-.67 0-1.2.53-1.24 1.18L9.5 6.67V4.25zm11.69 16.94L2.81 2.81 1.39 4.22l5.63 5.63L7 9.83v4.3c-1.11-.64-2.58-1.47-2.6-1.48-.17-.09-.34-.14-.54-.14-.26 0-.5.09-.7.26-.04.01-1.16 1.11-1.16 1.11l6.8 7.18c.57.6 1.35.94 2.18.94H17c.62 0 1.18-.19 1.65-.52l-.02-.02 1.15 1.15 1.41-1.42z"/></symbol><symbol viewBox="0 0 24 24" id="drag_handle" xmlns="http://www.w3.org/2000/svg"><path fill="none" d="M0 0h24v24H0z"/><path d="M20 9H4v2h16V9zM4 15h16v-2H4v2z"/></symbol><symbol viewBox="0 0 24 24" id="dry" xmlns="http://www.w3.org/2000/svg"><path fill="none" d="M0 0h24v24H0z"/><path d="M15.65 4.86l-.07-.07c-.57-.62-.82-1.41-.67-2.2L15 2h-1.89l-.06.43c-.2 1.36.27 2.71 1.3 3.72l.07.06c.57.62.82 1.41.67 2.2l-.11.59h1.91l.06-.43c.21-1.36-.27-2.71-1.3-3.71zm4 0l-.07-.07c-.57-.62-.82-1.41-.67-2.2L19 2h-1.89l-.06.43c-.2 1.36.27 2.71 1.3 3.72l.07.06c.57.62.82 1.41.67 2.2l-.11.59h1.91l.06-.43c.21-1.36-.27-2.71-1.3-3.71zM9.12 5l-7.18 6.79c-.6.56-.94 1.35-.94 2.18V20c0 1.66 1.34 3 3 3h13.75a1.25 1.25 0 000-2.5H12v-1h7.75a1.25 1.25 0 000-2.5H12v-1h8.75a1.25 1.25 0 000-2.5H12v-1h6.75a1.25 1.25 0 000-2.5H8.86c.64-1.11 1.48-2.58 1.49-2.61a1.065 1.065 0 00-.12-1.23C10.22 6.12 9.12 5 9.12 5z"/></symbol><symbol viewBox="0 0 20 20" id="eco" xmlns="http://www.w3.org/2000/svg"><path fill="none" d="M0 0h20v20H0z"/><path d="M5.53 7.04a5.242 5.242 0 00-.01 7.41c1.11-2.55 3.07-4.68 5.53-5.95A11.984 11.984 0 007 15.49c1.95.92 4.35.59 5.96-1.03C15.57 11.86 16 4 16 4s-7.86.43-10.47 3.04z"/></symbol><symbol viewBox="0 0 24 24" id="edit" xmlns="http://www.w3.org/2000/svg"><path d="M0 0h24v24H0z" fill="none"/><path d="M3 17.25V21h3.75L17.81 9.94l-3.75-3.75L3 17.25zM20.71 7.04a.996.996 0 000-1.41l-2.34-2.34a.996.996 0 00-1.41 0l-1.83 1.83 3.75 3.75 1.83-1.83z"/></symbol><symbol viewBox="0 0 24 24" id="elderly" xmlns="http://www.w3.org/2000/svg"><path fill="none" d="M0 0h24v24H0z"/><path d="M13.5 5.5c1.1 0 2-.9 2-2s-.9-2-2-2-2 .9-2 2 .9 2 2 2zm6.5 7V23h-1V12.5c0-.28-.22-.5-.5-.5s-.5.22-.5.5v1h-1v-.69a6.02 6.02 0 01-3.51-2.52c-.31.87-.49 1.78-.49 2.71 0 .23.02.46.03.69L15 16.5V23h-2v-5l-1.78-2.54L11 19l-3 4-1.6-1.2L9 18.33V13c0-1.15.18-2.29.5-3.39l-1.5.85V14H6V9.3l5.4-3.07v.01a2 2 0 011.94.03c.36.21.63.51.8.85l.79 1.67A3.987 3.987 0 0018.5 11c.83 0 1.5.67 1.5 1.5z"/></symbol><symbol viewBox="0 0 24 24" id="elevator" xmlns="http://www.w3.org/2000/svg"><path fill="none" d="M0 0h24v24H0z"/><path d="M19 3H5c-1.1 0-2 .9-2 2v14c0 1.1.9 2 2 2h14c1.1 0 2-.9 2-2V5c0-1.1-.9-2-2-2zM8.5 6a1.25 1.25 0 110 2.5 1.25 1.25 0 010-2.5zm2.5 8h-1v4H7v-4H6v-2.5c0-1.1.9-2 2-2h1c1.1 0 2 .9 2 2V14zm4.5 3L13 13h5l-2.5 4zM13 11l2.5-4 2.5 4h-5z"/></symbol><symbol viewBox="0 0 20 20" id="emoji_events" xmlns="http://www.w3.org/2000/svg"><path fill="none" d="M0 0h20v20H0z"/><path d="M15 6h-2V5H7v1H5c-.55 0-1 .45-1 1v1c0 1.66 1.34 3 3 3h.18a2.993 2.993 0 002.32 1.95V15H7v1h6v-1h-2.5v-2.05c1.08-.18 1.96-.94 2.32-1.95H13c1.66 0 3-1.34 3-3V7c0-.55-.45-1-1-1zm-8 4c-1.1 0-2-.9-2-2V7h2v3zm8-2c0 1.1-.9 2-2 2V7h2v1z"/></symbol><symbol viewBox="0 0 24 24" id="error" xmlns="http://www.w3.org/2000/svg"><path d="M0 0h24v24H0z" fill="none"/><path d="M12 2C6.48 2 2 6.48 2 12s4.48 10 10 10 10-4.48 10-10S17.52 2 12 2zm1 15h-2v-2h2v2zm0-4h-2V7h2v6z"/></symbol><symbol viewBox="0 0 24 24" id="escalator" xmlns="http://www.w3.org/2000/svg"><path fill="none" d="M0 0h24v24H0z"/><path d="M19 3H5c-1.1 0-2 .9-2 2v14c0 1.1.9 2 2 2h14c1.1 0 2-.9 2-2V5c0-1.1-.9-2-2-2zm-2 6h-1.7l-5 9H7c-.83 0-1.5-.67-1.5-1.5S6.17 15 7 15h1.7l5-9H17c.83 0 1.5.67 1.5 1.5S17.83 9 17 9z"/></symbol><symbol viewBox="0 0 24 24" id="event" xmlns="http://www.w3.org/2000/svg"><path d="M0 0h24v24H0z" fill="none"/><path d="M17 12h-5v5h5v-5zM16 1v2H8V1H6v2H5c-1.11 0-1.99.9-1.99 2L3 19a2 2 0 002 2h14c1.1 0 2-.9 2-2V5c0-1.1-.9-2-2-2h-1V1h-2zm3 18H5V8h14v11z"/></symbol><symbol viewBox="0 0 24 24" id="facebook" xmlns="http://www.w3.org/2000/svg"><path fill="none" d="M0 0h24v24H0z"/><path d="M22 12c0-5.52-4.48-10-10-10S2 6.48 2 12c0 4.84 3.44 8.87 8 9.8V15H8v-3h2V9.5C10 7.57 11.57 6 13.5 6H16v3h-2c-.55 0-1 .45-1 1v2h3v3h-3v6.95c5.05-.5 9-4.76 9-9.95z"/></symbol><symbol viewBox="0 0 24 24" id="fast_forward" xmlns="http://www.w3.org/2000/svg"><path d="M0 0h24v24H0z" fill="none"/><path d="M4 18l8.5-6L4 6v12zm9-12v12l8.5-6L13 6z"/></symbol><symbol viewBox="0 0 24 24" id="fast_rewind" xmlns="http://www.w3.org/2000/svg"><path d="M0 0h24v24H0z" fill="none"/><path d="M11 18V6l-8.5 6 8.5 6zm.5-6l8.5 6V6l-8.5 6z"/></symbol><symbol viewBox="0 0 24 24" id="favorite" xmlns="http://www.w3.org/2000/svg"><path d="M0 0h24v24H0z" fill="none"/><path d="M12 21.35l-1.45-1.32C5.4 15.36 2 12.28 2 8.5 2 5.42 4.42 3 7.5 3c1.74 0 3.41.81 4.5 2.09C13.09 3.81 14.76 3 16.5 3 19.58 3 22 5.42 22 8.5c0 3.78-3.4 6.86-8.55 11.54L12 21.35z"/></symbol><symbol viewBox="0 0 24 24" id="favorite_border" xmlns="http://www.w3.org/2000/svg"><path d="M0 0h24v24H0z" fill="none"/><path d="M16.5 3c-1.74 0-3.41.81-4.5 2.09C10.91 3.81 9.24 3 7.5 3 4.42 3 2 5.42 2 8.5c0 3.78 3.4 6.86 8.55 11.54L12 21.35l1.45-1.32C18.6 15.36 22 12.28 22 8.5 22 5.42 19.58 3 16.5 3zm-4.4 15.55l-.1.1-.1-.1C7.14 14.24 4 11.39 4 8.5 4 6.5 5.5 5 7.5 5c1.54 0 3.04.99 3.57 2.36h1.87C13.46 5.99 14.96 5 16.5 5c2 0 3.5 1.5 3.5 3.5 0 2.89-3.14 5.74-7.9 10.05z"/></symbol><symbol viewBox="0 0 24 24" id="filter_alt" xmlns="http://www.w3.org/2000/svg"><path d="M0 0h24m0 24H0" fill="none"/><path d="M4.25 5.61C6.27 8.2 10 13 10 13v6c0 .55.45 1 1 1h2c.55 0 1-.45 1-1v-6s3.72-4.8 5.74-7.39A.998.998 0 0018.95 4H5.04c-.83 0-1.3.95-.79 1.61z"/><path d="M0 0h24v24H0V0z" fill="none"/></symbol><symbol viewBox="0 0 24 24" id="fingerprint" xmlns="http://www.w3.org/2000/svg"><path d="M0 0h24v24H0z" fill="none"/><path d="M17.81 4.47c-.08 0-.16-.02-.23-.06C15.66 3.42 14 3 12.01 3c-1.98 0-3.86.47-5.57 1.41-.24.13-.54.04-.68-.2a.506.506 0 01.2-.68C7.82 2.52 9.86 2 12.01 2c2.13 0 3.99.47 6.03 1.52.25.13.34.43.21.67a.49.49 0 01-.44.28zM3.5 9.72a.499.499 0 01-.41-.79c.99-1.4 2.25-2.5 3.75-3.27C9.98 4.04 14 4.03 17.15 5.65c1.5.77 2.76 1.86 3.75 3.25a.5.5 0 01-.12.7c-.23.16-.54.11-.7-.12a9.388 9.388 0 00-3.39-2.94c-2.87-1.47-6.54-1.47-9.4.01-1.36.7-2.5 1.7-3.4 2.96-.08.14-.23.21-.39.21zm6.25 12.07a.47.47 0 01-.35-.15c-.87-.87-1.34-1.43-2.01-2.64-.69-1.23-1.05-2.73-1.05-4.34 0-2.97 2.54-5.39 5.66-5.39s5.66 2.42 5.66 5.39c0 .28-.22.5-.5.5s-.5-.22-.5-.5c0-2.42-2.09-4.39-4.66-4.39-2.57 0-4.66 1.97-4.66 4.39 0 1.44.32 2.77.93 3.85.64 1.15 1.08 1.64 1.85 2.42.19.2.19.51 0 .71-.11.1-.24.15-.37.15zm7.17-1.85c-1.19 0-2.24-.3-3.1-.89-1.49-1.01-2.38-2.65-2.38-4.39 0-.28.22-.5.5-.5s.5.22.5.5c0 1.41.72 2.74 1.94 3.56.71.48 1.54.71 2.54.71.24 0 .64-.03 1.04-.1.27-.05.53.13.58.41.05.27-.13.53-.41.58-.57.11-1.07.12-1.21.12zM14.91 22c-.04 0-.09-.01-.13-.02-1.59-.44-2.63-1.03-3.72-2.1a7.297 7.297 0 01-2.17-5.22c0-1.62 1.38-2.94 3.08-2.94 1.7 0 3.08 1.32 3.08 2.94 0 1.07.93 1.94 2.08 1.94s2.08-.87 2.08-1.94c0-3.77-3.25-6.83-7.25-6.83-2.84 0-5.44 1.58-6.61 4.03-.39.81-.59 1.76-.59 2.8 0 .78.07 2.01.67 3.61.1.26-.03.55-.29.64-.26.1-.55-.04-.64-.29a11.14 11.14 0 01-.73-3.96c0-1.2.23-2.29.68-3.24 1.33-2.79 4.28-4.6 7.51-4.6 4.55 0 8.25 3.51 8.25 7.83 0 1.62-1.38 2.94-3.08 2.94s-3.08-1.32-3.08-2.94c0-1.07-.93-1.94-2.08-1.94s-2.08.87-2.08 1.94c0 1.71.66 3.31 1.87 4.51.95.94 1.86 1.46 3.27 1.85.27.07.42.35.35.61-.05.23-.26.38-.47.38z"/></symbol><symbol viewBox="0 0 24 24" id="flag" xmlns="http://www.w3.org/2000/svg"><path d="M0 0h24v24H0z" fill="none"/><path d="M14.4 6L14 4H5v17h2v-7h5.6l.4 2h7V6z"/></symbol><symbol viewBox="0 0 24 24" id="flight" xmlns="http://www.w3.org/2000/svg"><path d="M0 0h24v24H0z" fill="none"/><path d="M21 16v-2l-8-5V3.5c0-.83-.67-1.5-1.5-1.5S10 2.67 10 3.5V9l-8 5v2l8-2.5V19l-2 1.5V22l3.5-1 3.5 1v-1.5L13 19v-5.5l8 2.5z"/></symbol><symbol viewBox="0 0 24 24" id="folder" xmlns="http://www.w3.org/2000/svg"><path d="M0 0h24v24H0z" fill="none"/><path d="M10 4H4c-1.1 0-1.99.9-1.99 2L2 18c0 1.1.9 2 2 2h16c1.1 0 2-.9 2-2V8c0-1.1-.9-2-2-2h-8l-2-2z"/></symbol><symbol viewBox="0 0 24 24" id="forum" xmlns="http://www.w3.org/2000/svg"><path d="M0 0h24v24H0z" fill="none"/><path d="M21 6h-2v9H6v2c0 .55.45 1 1 1h11l4 4V7c0-.55-.45-1-1-1zm-4 6V3c0-.55-.45-1-1-1H3c-.55 0-1 .45-1 1v14l4-4h10c.55 0 1-.45 1-1z"/></symbol><symbol viewBox="0 0 24 24" id="fullscreen" xmlns="http://www.w3.org/2000/svg"><path d="M0 0h24v24H0z" fill="none"/><path d="M7 14H5v5h5v-2H7v-3zm-2-4h2V7h3V5H5v5zm12 7h-3v2h5v-5h-2v3zM14 5v2h3v3h2V5h-5z"/></symbol><symbol viewBox="0 0 24 24" id="fullscreen_exit" xmlns="http://www.w3.org/2000/svg"><path d="M0 0h24v24H0z" fill="none"/><path d="M5 16h3v3h2v-5H5v2zm3-8H5v2h5V5H8v3zm6 11h2v-3h3v-2h-5v5zm2-11V5h-2v5h5V8h-3z"/></symbol><symbol viewBox="0 0 24 24" id="gavel" xmlns="http://www.w3.org/2000/svg"><path fill="none" d="M0 0h24v24H0z"/><path d="M5.25 8.069l2.83-2.827 14.134 14.15-2.83 2.827zM9.486 3.827L12.314.998l5.657 5.656-2.828 2.83zM.999 12.315l2.828-2.829 5.657 5.657-2.828 2.828zM1 21h12v2H1z"/></symbol><symbol viewBox="0 0 24 24" id="golf_course" xmlns="http://www.w3.org/2000/svg"><path d="M0 0h24v24H0V0z" fill="none"/><circle cx="19.5" cy="19.5" r="1.5"/><path d="M17 5.92L9 2v18H7v-1.73c-1.79.35-3 .99-3 1.73 0 1.1 2.69 2 6 2s6-.9 6-2c0-.99-2.16-1.81-5-1.97V8.98l6-3.06z"/></symbol><symbol viewBox="0 0 24 24" id="grid_view" xmlns="http://www.w3.org/2000/svg"><g fill-rule="evenodd"><path d="M0 0h24v24H0z" fill="none"/><path d="M3 3v8h8V3H3zm6 6H5V5h4v4zm-6 4v8h8v-8H3zm6 6H5v-4h4v4zm4-16v8h8V3h-8zm6 6h-4V5h4v4zm-6 4v8h8v-8h-8zm6 6h-4v-4h4v4z"/></g></symbol><symbol viewBox="0 0 24 24" id="group_add" xmlns="http://www.w3.org/2000/svg"><path d="M0 0h24v24H0z" fill="none"/><path d="M8 10H5V7H3v3H0v2h3v3h2v-3h3v-2zm10 1c1.66 0 2.99-1.34 2.99-3S19.66 5 18 5c-.32 0-.63.05-.91.14.57.81.9 1.79.9 2.86s-.34 2.04-.9 2.86c.28.09.59.14.91.14zm-5 0c1.66 0 2.99-1.34 2.99-3S14.66 5 13 5c-1.66 0-3 1.34-3 3s1.34 3 3 3zm6.62 2.16c.83.73 1.38 1.66 1.38 2.84v2h3v-2c0-1.54-2.37-2.49-4.38-2.84zM13 13c-2 0-6 1-6 3v2h12v-2c0-2-4-3-6-3z"/></symbol><symbol viewBox="0 0 24 24" id="hearing" xmlns="http://www.w3.org/2000/svg"><path d="M0 0h24v24H0z" fill="none"/><path d="M17 20c-.29 0-.56-.06-.76-.15-.71-.37-1.21-.88-1.71-2.38-.51-1.56-1.47-2.29-2.39-3-.79-.61-1.61-1.24-2.32-2.53C9.29 10.98 9 9.93 9 9c0-2.8 2.2-5 5-5s5 2.2 5 5h2c0-3.93-3.07-7-7-7S7 5.07 7 9c0 1.26.38 2.65 1.07 3.9.91 1.65 1.98 2.48 2.85 3.15.81.62 1.39 1.07 1.71 2.05.6 1.82 1.37 2.84 2.73 3.55A3.999 3.999 0 0021 18h-2c0 1.1-.9 2-2 2zM7.64 2.64L6.22 1.22C4.23 3.21 3 5.96 3 9s1.23 5.79 3.22 7.78l1.41-1.41C6.01 13.74 5 11.49 5 9s1.01-4.74 2.64-6.36zM11.5 9a2.5 2.5 0 005 0 2.5 2.5 0 00-5 0z"/></symbol><symbol viewBox="0 0 24 24" id="help" xmlns="http://www.w3.org/2000/svg"><path d="M0 0h24v24H0z" fill="none"/><path d="M12 2C6.48 2 2 6.48 2 12s4.48 10 10 10 10-4.48 10-10S17.52 2 12 2zm1 17h-2v-2h2v2zm2.07-7.75l-.9.92C13.45 12.9 13 13.5 13 15h-2v-.5c0-1.1.45-2.1 1.17-2.83l1.24-1.26c.37-.36.59-.86.59-1.41 0-1.1-.9-2-2-2s-2 .9-2 2H8c0-2.21 1.79-4 4-4s4 1.79 4 4c0 .88-.36 1.68-.93 2.25z"/></symbol><symbol viewBox="0 0 24 24" id="help_outline" xmlns="http://www.w3.org/2000/svg"><path d="M0 0h24v24H0z" fill="none"/><path d="M11 18h2v-2h-2v2zm1-16C6.48 2 2 6.48 2 12s4.48 10 10 10 10-4.48 10-10S17.52 2 12 2zm0 18c-4.41 0-8-3.59-8-8s3.59-8 8-8 8 3.59 8 8-3.59 8-8 8zm0-14c-2.21 0-4 1.79-4 4h2c0-1.1.9-2 2-2s2 .9 2 2c0 2-3 1.75-3 5h2c0-2.25 3-2.5 3-5 0-2.21-1.79-4-4-4z"/></symbol><symbol viewBox="0 0 24 24" id="history" xmlns="http://www.w3.org/2000/svg"><path d="M0 0h24v24H0z" fill="none"/><path d="M13 3a9 9 0 00-9 9H1l3.89 3.89.07.14L9 12H6c0-3.87 3.13-7 7-7s7 3.13 7 7-3.13 7-7 7c-1.93 0-3.68-.79-4.94-2.06l-1.42 1.42A8.954 8.954 0 0013 21a9 9 0 000-18zm-1 5v5l4.28 2.54.72-1.21-3.5-2.08V8H12z"/></symbol><symbol viewBox="0 0 24 24" id="home" xmlns="http://www.w3.org/2000/svg"><path d="M0 0h24v24H0z" fill="none"/><path d="M10 20v-6h4v6h5v-8h3L12 3 2 12h3v8z"/></symbol><symbol viewBox="0 0 24 24" id="hourglass_empty" xmlns="http://www.w3.org/2000/svg"><path d="M0 0h24v24H0V0z" fill="none"/><path d="M6 2v6h.01L6 8.01 10 12l-4 4 .01.01H6V22h12v-5.99h-.01L18 16l-4-4 4-3.99-.01-.01H18V2H6zm10 14.5V20H8v-3.5l4-4 4 4zm-4-5l-4-4V4h8v3.5l-4 4z"/></symbol><symbol viewBox="0 0 20 20" id="icecream" xmlns="http://www.w3.org/2000/svg"><path fill="none" d="M0 0h20v20H0z"/><path d="M13.97 6.73C13.83 4.65 12.12 3 10 3S6.17 4.65 6.03 6.73c-.8.34-1.36 1.13-1.36 2.05 0 1.23.99 2.22 2.22 2.22.04 0 .07-.01.11-.01L10 17l3-6.01c.04 0 .07.01.11.01 1.23 0 2.22-.99 2.22-2.22 0-.92-.56-1.71-1.36-2.05zM10 14.76L7.97 10.7c.08-.05.16-.09.24-.15.54.28 1.14.45 1.79.45s1.25-.17 1.79-.44c.07.06.15.1.24.15L10 14.76z"/></symbol><symbol viewBox="0 0 24 24" id="image" xmlns="http://www.w3.org/2000/svg"><path d="M0 0h24v24H0z" fill="none"/><path d="M21 19V5c0-1.1-.9-2-2-2H5c-1.1 0-2 .9-2 2v14c0 1.1.9 2 2 2h14c1.1 0 2-.9 2-2zM8.5 13.5l2.5 3.01L14.5 12l4.5 6H5l3.5-4.5z"/></symbol><symbol viewBox="0 0 24 24" id="info" xmlns="http://www.w3.org/2000/svg"><path d="M0 0h24v24H0z" fill="none"/><path d="M12 2C6.48 2 2 6.48 2 12s4.48 10 10 10 10-4.48 10-10S17.52 2 12 2zm1 15h-2v-6h2v6zm0-8h-2V7h2v2z"/></symbol><symbol viewBox="0 0 24 24" id="info_outline" xmlns="http://www.w3.org/2000/svg"><path d="M0 0h24v24H0V0z" fill="none"/><path d="M11 7h2v2h-2V7zm0 4h2v6h-2v-6zm1-9C6.48 2 2 6.48 2 12s4.48 10 10 10 10-4.48 10-10S17.52 2 12 2zm0 18c-4.41 0-8-3.59-8-8s3.59-8 8-8 8 3.59 8 8-3.59 8-8 8z"/></symbol><symbol viewBox="0 0 24 24" id="keyboard" xmlns="http://www.w3.org/2000/svg"><path d="M20 5H4c-1.1 0-1.99.9-1.99 2L2 17c0 1.1.9 2 2 2h16c1.1 0 2-.9 2-2V7c0-1.1-.9-2-2-2zm-9 3h2v2h-2V8zm0 3h2v2h-2v-2zM8 8h2v2H8V8zm0 3h2v2H8v-2zm-1 2H5v-2h2v2zm0-3H5V8h2v2zm9 7H8v-2h8v2zm0-4h-2v-2h2v2zm0-3h-2V8h2v2zm3 3h-2v-2h2v2zm0-3h-2V8h2v2z"/><path d="M0 0h24v24H0zm0 0h24v24H0z" fill="none"/></symbol><symbol viewBox="0 0 24 24" id="keyboard_arrow_down" xmlns="http://www.w3.org/2000/svg"><path d="M0 0h24v24H0V0z" fill="none"/><path d="M7.41 8.59L12 13.17l4.59-4.58L18 10l-6 6-6-6 1.41-1.41z"/></symbol><symbol viewBox="0 0 24 24" id="keyboard_arrow_left" xmlns="http://www.w3.org/2000/svg"><path d="M0 0h24v24H0V0z" fill="none"/><path d="M15.41 16.59L10.83 12l4.58-4.59L14 6l-6 6 6 6 1.41-1.41z"/></symbol><symbol viewBox="0 0 24 24" id="keyboard_arrow_right" xmlns="http://www.w3.org/2000/svg"><path d="M0 0h24v24H0V0z" fill="none"/><path d="M8.59 16.59L13.17 12 8.59 7.41 10 6l6 6-6 6-1.41-1.41z"/></symbol><symbol viewBox="0 0 24 24" id="keyboard_arrow_up" xmlns="http://www.w3.org/2000/svg"><path d="M0 0h24v24H0z" fill="none"/><path d="M7.41 15.41L12 10.83l4.59 4.58L18 14l-6-6-6 6z"/></symbol><symbol viewBox="0 0 24 24" id="launch" xmlns="http://www.w3.org/2000/svg"><path d="M0 0h24v24H0z" fill="none"/><path d="M19 19H5V5h7V3H5a2 2 0 00-2 2v14a2 2 0 002 2h14c1.1 0 2-.9 2-2v-7h-2v7zM14 3v2h3.59l-9.83 9.83 1.41 1.41L19 6.41V10h2V3h-7z"/></symbol><symbol viewBox="0 0 24 24" id="lightbulb" xmlns="http://www.w3.org/2000/svg"><path d="M0 0h24v24H0z" fill="none"/><path d="M9 21c0 .5.4 1 1 1h4c.6 0 1-.5 1-1v-1H9v1zm3-19C8.1 2 5 5.1 5 9c0 2.4 1.2 4.5 3 5.7V17c0 .5.4 1 1 1h6c.6 0 1-.5 1-1v-2.3c1.8-1.3 3-3.4 3-5.7 0-3.9-3.1-7-7-7z"/></symbol><symbol viewBox="0 0 24 24" id="lightbulb_outline" xmlns="http://www.w3.org/2000/svg"><path fill="none" d="M0 0h24v24H0z"/><path d="M9 21c0 .55.45 1 1 1h4c.55 0 1-.45 1-1v-1H9v1zm3-19C8.14 2 5 5.14 5 9c0 2.38 1.19 4.47 3 5.74V17c0 .55.45 1 1 1h6c.55 0 1-.45 1-1v-2.26c1.81-1.27 3-3.36 3-5.74 0-3.86-3.14-7-7-7zm2 11.7V16h-4v-2.3C8.48 12.63 7 11.53 7 9c0-2.76 2.24-5 5-5s5 2.24 5 5c0 2.49-1.51 3.65-3 4.7z"/></symbol><symbol viewBox="0 0 24 24" id="list" xmlns="http://www.w3.org/2000/svg"><path d="M0 0h24v24H0z" fill="none"/><path d="M3 13h2v-2H3v2zm0 4h2v-2H3v2zm0-8h2V7H3v2zm4 4h14v-2H7v2zm0 4h14v-2H7v2zM7 7v2h14V7H7z"/></symbol><symbol viewBox="0 0 24 24" id="local_bar" xmlns="http://www.w3.org/2000/svg"><path d="M0 0h24v24H0z" fill="none"/><path d="M21 5V3H3v2l8 9v5H6v2h12v-2h-5v-5l8-9zM7.43 7L5.66 5h12.69l-1.78 2H7.43z"/></symbol><symbol viewBox="0 0 24 24" id="local_cafe" xmlns="http://www.w3.org/2000/svg"><path d="M0 0h24v24H0V0z" fill="none"/><path d="M20 3H4v10c0 2.21 1.79 4 4 4h6c2.21 0 4-1.79 4-4v-3h2a2 2 0 002-2V5c0-1.11-.89-2-2-2zm0 5h-2V5h2v3zM4 19h16v2H4z"/></symbol><symbol viewBox="0 0 24 24" id="local_fire_department" xmlns="http://www.w3.org/2000/svg"><path fill="none" d="M0 0h24v24H0z"/><path d="M19.48 12.35c-1.57-4.08-7.16-4.3-5.81-10.23.1-.44-.37-.78-.75-.55C9.29 3.71 6.68 8 8.87 13.62c.18.46-.36.89-.75.59-1.81-1.37-2-3.34-1.84-4.75.06-.52-.62-.77-.91-.34C4.69 10.16 4 11.84 4 14.37c.38 5.6 5.11 7.32 6.81 7.54 2.43.31 5.06-.14 6.95-1.87 2.08-1.93 2.84-5.01 1.72-7.69zm-9.28 5.03c1.44-.35 2.18-1.39 2.38-2.31.33-1.43-.96-2.83-.09-5.09.33 1.87 3.27 3.04 3.27 5.08.08 2.53-2.66 4.7-5.56 2.32z"/></symbol><symbol viewBox="0 0 24 24" id="local_gas_station" xmlns="http://www.w3.org/2000/svg"><path d="M0 0h24v24H0z" fill="none"/><path d="M19.77 7.23l.01-.01-3.72-3.72L15 4.56l2.11 2.11c-.94.36-1.61 1.26-1.61 2.33a2.5 2.5 0 002.5 2.5c.36 0 .69-.08 1-.21v7.21c0 .55-.45 1-1 1s-1-.45-1-1V14c0-1.1-.9-2-2-2h-1V5c0-1.1-.9-2-2-2H6c-1.1 0-2 .9-2 2v16h10v-7.5h1.5v5a2.5 2.5 0 005 0V9c0-.69-.28-1.32-.73-1.77zM12 10H6V5h6v5zm6 0c-.55 0-1-.45-1-1s.45-1 1-1 1 .45 1 1-.45 1-1 1z"/></symbol><symbol viewBox="0 0 24 24" id="local_grocery_store" xmlns="http://www.w3.org/2000/svg"><path d="M0 0h24v24H0z" fill="none"/><path d="M7 18c-1.1 0-1.99.9-1.99 2S5.9 22 7 22s2-.9 2-2-.9-2-2-2zM1 2v2h2l3.6 7.59-1.35 2.45c-.16.28-.25.61-.25.96 0 1.1.9 2 2 2h12v-2H7.42c-.14 0-.25-.11-.25-.25l.03-.12.9-1.63h7.45c.75 0 1.41-.41 1.75-1.03l3.58-6.49A1.003 1.003 0 0020 4H5.21l-.94-2H1zm16 16c-1.1 0-1.99.9-1.99 2s.89 2 1.99 2 2-.9 2-2-.9-2-2-2z"/></symbol><symbol viewBox="0 0 24 24" id="local_hospital" xmlns="http://www.w3.org/2000/svg"><path d="M0 0h24v24H0z" fill="none"/><path d="M19 3H5c-1.1 0-1.99.9-1.99 2L3 19c0 1.1.9 2 2 2h14c1.1 0 2-.9 2-2V5c0-1.1-.9-2-2-2zm-1 11h-4v4h-4v-4H6v-4h4V6h4v4h4v4z"/></symbol><symbol viewBox="0 0 24 24" id="local_library" xmlns="http://www.w3.org/2000/svg"><path d="M0 0h24v24H0z" fill="none"/><path d="M12 11.55C9.64 9.35 6.48 8 3 8v11c3.48 0 6.64 1.35 9 3.55 2.36-2.19 5.52-3.55 9-3.55V8c-3.48 0-6.64 1.35-9 3.55zM12 8c1.66 0 3-1.34 3-3s-1.34-3-3-3-3 1.34-3 3 1.34 3 3 3z"/></symbol><symbol viewBox="0 0 24 24" id="local_offer" xmlns="http://www.w3.org/2000/svg"><path d="M0 0h24v24H0z" fill="none"/><path d="M21.41 11.58l-9-9C12.05 2.22 11.55 2 11 2H4c-1.1 0-2 .9-2 2v7c0 .55.22 1.05.59 1.42l9 9c.36.36.86.58 1.41.58.55 0 1.05-.22 1.41-.59l7-7c.37-.36.59-.86.59-1.41 0-.55-.23-1.06-.59-1.42zM5.5 7C4.67 7 4 6.33 4 5.5S4.67 4 5.5 4 7 4.67 7 5.5 6.33 7 5.5 7z"/></symbol><symbol viewBox="0 0 24 24" id="local_parking" xmlns="http://www.w3.org/2000/svg"><path d="M0 0h24v24H0z" fill="none"/><path d="M13 3H6v18h4v-6h3c3.31 0 6-2.69 6-6s-2.69-6-6-6zm.2 8H10V7h3.2c1.1 0 2 .9 2 2s-.9 2-2 2z"/></symbol><symbol viewBox="0 0 24 24" id="local_pharmacy" xmlns="http://www.w3.org/2000/svg"><path d="M0 0h24v24H0z" fill="none"/><path d="M21 5h-2.64l1.14-3.14L17.15 1l-1.46 4H3v2l2 6-2 6v2h18v-2l-2-6 2-6V5zm-5 9h-3v3h-2v-3H8v-2h3V9h2v3h3v2z"/></symbol><symbol viewBox="0 0 24 24" id="local_police" xmlns="http://www.w3.org/2000/svg"><path fill="none" d="M0 0h24v24H0z"/><path d="M12 1L3 5v6c0 5.55 3.84 10.74 9 12 5.16-1.26 9-6.45 9-12V5l-9-4zm2.5 11.59l.9 3.88-3.4-2.05-3.4 2.05.9-3.87-3-2.59 3.96-.34L12 6.02l1.54 3.64 3.96.34-3 2.59z"/></symbol><symbol viewBox="0 0 24 24" id="local_taxi" xmlns="http://www.w3.org/2000/svg"><path d="M0 0h24v24H0z" fill="none"/><path d="M18.92 6.01C18.72 5.42 18.16 5 17.5 5H15V3H9v2H6.5c-.66 0-1.21.42-1.42 1.01L3 12v8c0 .55.45 1 1 1h1c.55 0 1-.45 1-1v-1h12v1c0 .55.45 1 1 1h1c.55 0 1-.45 1-1v-8l-2.08-5.99zM6.5 16c-.83 0-1.5-.67-1.5-1.5S5.67 13 6.5 13s1.5.67 1.5 1.5S7.33 16 6.5 16zm11 0c-.83 0-1.5-.67-1.5-1.5s.67-1.5 1.5-1.5 1.5.67 1.5 1.5-.67 1.5-1.5 1.5zM5 11l1.5-4.5h11L19 11H5z"/></symbol><symbol viewBox="0 0 24 24" id="location_city" xmlns="http://www.w3.org/2000/svg"><path d="M0 0h24v24H0z" fill="none"/><path d="M15 11V5l-3-3-3 3v2H3v14h18V11h-6zm-8 8H5v-2h2v2zm0-4H5v-2h2v2zm0-4H5V9h2v2zm6 8h-2v-2h2v2zm0-4h-2v-2h2v2zm0-4h-2V9h2v2zm0-4h-2V5h2v2zm6 12h-2v-2h2v2zm0-4h-2v-2h2v2z"/></symbol><symbol viewBox="0 0 24 24" id="location_on" xmlns="http://www.w3.org/2000/svg"><path d="M0 0h24v24H0z" fill="none"/><path d="M12 2C8.13 2 5 5.13 5 9c0 5.25 7 13 7 13s7-7.75 7-13c0-3.87-3.13-7-7-7zm0 9.5a2.5 2.5 0 010-5 2.5 2.5 0 010 5z"/></symbol><symbol viewBox="0 0 24 24" id="lock" xmlns="http://www.w3.org/2000/svg"><path d="M0 0h24v24H0z" fill="none"/><path d="M18 8h-1V6c0-2.76-2.24-5-5-5S7 3.24 7 6v2H6c-1.1 0-2 .9-2 2v10c0 1.1.9 2 2 2h12c1.1 0 2-.9 2-2V10c0-1.1-.9-2-2-2zm-6 9c-1.1 0-2-.9-2-2s.9-2 2-2 2 .9 2 2-.9 2-2 2zm3.1-9H8.9V6c0-1.71 1.39-3.1 3.1-3.1 1.71 0 3.1 1.39 3.1 3.1v2z"/></symbol><symbol viewBox="0 0 24 24" id="lock_open" xmlns="http://www.w3.org/2000/svg"><path d="M0 0h24v24H0z" fill="none"/><path d="M12 17c1.1 0 2-.9 2-2s-.9-2-2-2-2 .9-2 2 .9 2 2 2zm6-9h-1V6c0-2.76-2.24-5-5-5S7 3.24 7 6h1.9c0-1.71 1.39-3.1 3.1-3.1 1.71 0 3.1 1.39 3.1 3.1v2H6c-1.1 0-2 .9-2 2v10c0 1.1.9 2 2 2h12c1.1 0 2-.9 2-2V10c0-1.1-.9-2-2-2zm0 12H6V10h12v10z"/></symbol><symbol viewBox="0 0 20 20" id="login" xmlns="http://www.w3.org/2000/svg"><path fill="none" d="M0 0h20v20H0z"/><path d="M10 4v1h6v10h-6v1h6c.55 0 1-.45 1-1V5c0-.55-.45-1-1-1h-6z"/><path d="M9.5 6.5l-.71.71 2.3 2.29H3v1h8.09l-2.3 2.29.71.71L13 10z"/></symbol><symbol viewBox="0 0 24 24" id="logout" xmlns="http://www.w3.org/2000/svg"><path d="M0 0h24v24H0z" fill="none"/><path d="M17 7l-1.41 1.41L18.17 11H8v2h10.17l-2.58 2.58L17 17l5-5zM4 5h8V3H4c-1.1 0-2 .9-2 2v14c0 1.1.9 2 2 2h8v-2H4V5z"/></symbol><symbol viewBox="0 0 24 24" id="loop" xmlns="http://www.w3.org/2000/svg"><path d="M0 0h24v24H0z" fill="none"/><path d="M12 4V1L8 5l4 4V6c3.31 0 6 2.69 6 6 0 1.01-.25 1.97-.7 2.8l1.46 1.46A7.93 7.93 0 0020 12c0-4.42-3.58-8-8-8zm0 14c-3.31 0-6-2.69-6-6 0-1.01.25-1.97.7-2.8L5.24 7.74A7.93 7.93 0 004 12c0 4.42 3.58 8 8 8v3l4-4-4-4v3z"/></symbol><symbol viewBox="0 0 24 24" id="mail" xmlns="http://www.w3.org/2000/svg"><path d="M0 0h24v24H0z" fill="none"/><path d="M20 4H4c-1.1 0-1.99.9-1.99 2L2 18c0 1.1.9 2 2 2h16c1.1 0 2-.9 2-2V6c0-1.1-.9-2-2-2zm0 4l-8 5-8-5V6l8 5 8-5v2z"/></symbol><symbol viewBox="0 0 24 24" id="mail_outline" xmlns="http://www.w3.org/2000/svg"><path d="M0 0h24v24H0z" fill="none"/><path d="M20 4H4c-1.1 0-1.99.9-1.99 2L2 18c0 1.1.9 2 2 2h16c1.1 0 2-.9 2-2V6c0-1.1-.9-2-2-2zm0 14H4V8l8 5 8-5v10zm-8-7L4 6h16l-8 5z"/></symbol><symbol viewBox="0 0 24 24" id="map" xmlns="http://www.w3.org/2000/svg"><path d="M0 0h24v24H0z" fill="none"/><path d="M20.5 3l-.16.03L15 5.1 9 3 3.36 4.9c-.21.07-.36.25-.36.48V20.5c0 .28.22.5.5.5l.16-.03L9 18.9l6 2.1 5.64-1.9c.21-.07.36-.25.36-.48V3.5c0-.28-.22-.5-.5-.5zM15 19l-6-2.11V5l6 2.11V19z"/></symbol><symbol viewBox="0 0 24 24" id="masks" xmlns="http://www.w3.org/2000/svg"><path fill="none" d="M0 0h24v24H0z"/><path d="M19.5 6c-1.31 0-2.37 1.01-2.48 2.3-1.88-.5-2.84-1.8-5.02-1.8-2.19 0-3.14 1.3-5.02 1.8C6.87 7.02 5.81 6 4.5 6A2.5 2.5 0 002 8.5V9c0 6 3.6 7.81 6.52 7.98C9.53 17.62 10.72 18 12 18s2.47-.38 3.48-1.02C18.4 16.81 22 15 22 9v-.5A2.5 2.5 0 0019.5 6zm-16 3v-.5c0-.55.45-1 1-1s1 .45 1 1v3c0 1.28.38 2.47 1.01 3.48C4.99 14.27 3.5 12.65 3.5 9zm17 0c0 3.65-1.49 5.27-3.01 5.98.64-1.01 1.01-2.2 1.01-3.48v-3c0-.55.45-1 1-1s1 .45 1 1V9zm-9.81 1.48c-.44.26-.96.56-1.69.76V10.2c.48-.17.84-.38 1.18-.58C10.72 9.3 11.23 9 12 9s1.27.3 1.8.62c.34.2.71.42 1.2.59v1.04c-.75-.21-1.26-.51-1.71-.78-.46-.27-.8-.47-1.29-.47s-.84.2-1.31.48z"/></symbol><symbol viewBox="0 0 24 24" id="menu" xmlns="http://www.w3.org/2000/svg"><path d="M0 0h24v24H0z" fill="none"/><path d="M3 18h18v-2H3v2zm0-5h18v-2H3v2zm0-7v2h18V6H3z"/></symbol><symbol viewBox="0 0 20 20" id="military_tech" xmlns="http://www.w3.org/2000/svg"><path fill="none" d="M0 0h20v20H0z"/><path d="M13.16 13.29l-2.27-.19-.56-1.31 2.45-1.63c.14-.1.22-.26.22-.43V3H7v6.73c0 .17.08.32.22.42l2.45 1.63-.56 1.31-2.27.19 1.72 1.49L8.05 17 10 15.82 11.95 17l-.52-2.22 1.73-1.49zM9.5 4h1v6.46l-.5.34-.5-.33V4z"/></symbol><symbol viewBox="0 0 24 24" id="more_horiz" xmlns="http://www.w3.org/2000/svg"><path d="M0 0h24v24H0z" fill="none"/><path d="M6 10c-1.1 0-2 .9-2 2s.9 2 2 2 2-.9 2-2-.9-2-2-2zm12 0c-1.1 0-2 .9-2 2s.9 2 2 2 2-.9 2-2-.9-2-2-2zm-6 0c-1.1 0-2 .9-2 2s.9 2 2 2 2-.9 2-2-.9-2-2-2z"/></symbol><symbol viewBox="0 0 24 24" id="more_vert" xmlns="http://www.w3.org/2000/svg"><path d="M0 0h24v24H0z" fill="none"/><path d="M12 8c1.1 0 2-.9 2-2s-.9-2-2-2-2 .9-2 2 .9 2 2 2zm0 2c-1.1 0-2 .9-2 2s.9 2 2 2 2-.9 2-2-.9-2-2-2zm0 6c-1.1 0-2 .9-2 2s.9 2 2 2 2-.9 2-2-.9-2-2-2z"/></symbol><symbol viewBox="0 0 24 24" id="near_me" xmlns="http://www.w3.org/2000/svg"><path d="M0 0h24v24H0V0z" fill="none"/><path d="M21 3L3 10.53v.98l6.84 2.65L12.48 21h.98L21 3z"/></symbol><symbol viewBox="0 0 24 24" id="no_cell" xmlns="http://www.w3.org/2000/svg"><path fill="none" d="M0 0h24v24H0z"/><path d="M8.83 6l-3.7-3.7C5.42 1.55 6.15 1 7 1l10 .01c1.1 0 2 .89 2 1.99v13.17l-2-2V6H8.83zm10.95 16.61l-.91-.91c-.29.75-1.02 1.3-1.87 1.3H7c-1.1 0-2-.9-2-2V7.83L1.39 4.22 2.8 2.81l18.38 18.38-1.4 1.42zM15.17 18L7 9.83V18h8.17z"/></symbol><symbol viewBox="0 0 24 24" id="no_drinks" xmlns="http://www.w3.org/2000/svg"><path fill="none" d="M0 0h24v24H0z"/><path d="M5.83 3H21v2l-6.2 6.97L9.83 7h6.74l1.78-2H7.83l-2-2zm13.95 19.61L18 20.83V21H6v-2h5v-5l-1.37-1.54-8.24-8.24L2.8 2.81 3 3l18.19 18.19-1.41 1.42zM16.17 19L13 15.83V19h3.17z"/></symbol><symbol viewBox="0 0 24 24" id="no_flash" xmlns="http://www.w3.org/2000/svg"><path fill="none" d="M0 0h24v24H0z"/><path d="M13.93 13.93L2.45 2.45 1.04 3.87l5.3 5.3-.2.23H3.6c-.88 0-1.6.72-1.6 1.6v9.4c0 .88.72 1.6 1.6 1.6h12.8c.75 0 1.38-.52 1.55-1.22l2.18 2.18 1.41-1.41L18 18l-4.07-4.07zM10 20c-2.21 0-4-1.79-4-4 0-1.95 1.4-3.57 3.25-3.92l1.57 1.57c-.26-.09-.53-.15-.82-.15a2.5 2.5 0 000 5 2.5 2.5 0 002.5-2.5c0-.29-.06-.56-.15-.82l1.57 1.57A3.993 3.993 0 0110 20zm8-4.83L10.83 8h1.75l1.28 1.4h2.54c.88 0 1.6.72 1.6 1.6v4.17zm2.4-9.57H22L19 11V7h-1V2h4l-1.6 3.6z"/></symbol><symbol viewBox="0 0 24 24" id="no_meals" xmlns="http://www.w3.org/2000/svg"><path fill="none" d="M0 0h24v24H0z"/><path d="M16 14V6c0-1.76 2.24-4 5-4v16.17l-2-2V14h-3zm4.49 9.31L10.02 12.85c-.33.09-.66.15-1.02.15v9H7v-9c-2.21 0-4-1.79-4-4V5.83L.69 3.51 2.1 2.1l19.8 19.8-1.41 1.41zM6.17 9L5 7.83V9h1.17zM9 2H7v2.17l2 2V2zm4 7V2h-2v6.17l1.85 1.85c.09-.33.15-.66.15-1.02z"/></symbol><symbol viewBox="0 0 24 24" id="no_photography" xmlns="http://www.w3.org/2000/svg"><path fill="none" d="M0 0h24v24H0z"/><path d="M10.94 8.12L7.48 4.66 9 3h6l1.83 2H20c1.1 0 2 .9 2 2v12c0 .05-.01.1-.02.16l-5.1-5.1c.08-.35.12-.7.12-1.06 0-2.76-2.24-5-5-5-.36 0-.71.04-1.06.12zm9.55 15.19L18.17 21H4c-1.1 0-2-.9-2-2V7c0-.59.27-1.12.68-1.49l-2-2L2.1 2.1l19.8 19.8-1.41 1.41zm-6-5.99l-1.5-1.5c-.32.1-.64.18-.99.18-1.66 0-3-1.34-3-3 0-.35.08-.67.19-.98l-1.5-1.5A4.74 4.74 0 007 13c0 2.76 2.24 5 5 5 .91 0 1.76-.25 2.49-.68z"/></symbol><symbol viewBox="0 0 24 24" id="no_stroller" xmlns="http://www.w3.org/2000/svg"><path fill="none" d="M0 0h24v24H0z"/><path d="M6 18c1.1 0 2 .9 2 2s-.9 2-2 2-2-.9-2-2 .9-2 2-2zM18.65 3c-1.66 0-2.54 1.27-3.18 2.03l-3.5 4.11L17 14.17v-7.9c.58-.68.97-1.27 1.65-1.27.77 0 1.35.66 1.35 1.48V7h2v-.52C22 4.56 20.52 3 18.65 3zm-7.98 7.67L2.81 2.81 1.39 4.22l7.97 7.97-2.66 3.12c-.55.65-.09 1.65.76 1.65h6.66l1.17 1.17C14.54 18.42 14 19.14 14 20c0 1.1.9 2 2 2 .86 0 1.58-.54 1.87-1.3l1.91 1.91 1.41-1.41-4.8-4.8-5.72-5.73zm2.8-5.64c.27-.32.58-.72.98-1.09a9.347 9.347 0 00-7.81-.13l4.25 4.25 2.58-3.03z"/></symbol><symbol viewBox="0 0 20 20" id="not_accessible" xmlns="http://www.w3.org/2000/svg"><path fill="none" d="M0 0h20v20H0z"/><path d="M10.95 14h1c-.24 1.69-1.69 3-3.45 3C6.57 17 5 15.43 5 13.5c0-1.76 1.31-3.21 3-3.45v1A2.5 2.5 0 1010.95 14zM8.5 4.5c0 .83.67 1.5 1.5 1.5s1.5-.67 1.5-1.5S10.83 3 10 3s-1.5.67-1.5 1.5zM11 9.59v-.63l.47.43c.17.16.35.3.53.43.77.57 1.68.89 2.66.89v-1c-.94 0-1.81-.36-2.49-1.04L12 8.52l-1.15-1.05S10.36 7 10 7c-.43 0-.79.28-.93.66L11 9.59zm5.36 6.77L3.64 3.64l-.71.7L9 10.41V12c0 .55.45 1 1 1h1.59l4.07 4.07.7-.71z"/></symbol><symbol viewBox="0 0 24 24" id="notifications" xmlns="http://www.w3.org/2000/svg"><path d="M12 22c1.1 0 2-.9 2-2h-4a2 2 0 002 2zm6-6v-5c0-3.07-1.64-5.64-4.5-6.32V4c0-.83-.67-1.5-1.5-1.5s-1.5.67-1.5 1.5v.68C7.63 5.36 6 7.92 6 11v5l-2 2v1h16v-1l-2-2z"/></symbol><symbol viewBox="0 0 24 24" id="notifications_none" xmlns="http://www.w3.org/2000/svg"><path d="M0 0h24v24H0z" fill="none"/><path d="M12 22c1.1 0 2-.9 2-2h-4c0 1.1.9 2 2 2zm6-6v-5c0-3.07-1.63-5.64-4.5-6.32V4c0-.83-.67-1.5-1.5-1.5s-1.5.67-1.5 1.5v.68C7.64 5.36 6 7.92 6 11v5l-2 2v1h16v-1l-2-2zm-2 1H8v-6c0-2.48 1.51-4.5 4-4.5s4 2.02 4 4.5v6z"/></symbol><symbol viewBox="0 0 24 24" id="notifications_off" xmlns="http://www.w3.org/2000/svg"><path d="M0 0h24v24H0z" fill="none"/><path d="M20 18.69L7.84 6.14 5.27 3.49 4 4.76l2.8 2.8v.01c-.52.99-.8 2.16-.8 3.42v5l-2 2v1h13.73l2 2L21 19.72l-1-1.03zM12 22c1.11 0 2-.89 2-2h-4c0 1.11.89 2 2 2zm6-7.32V11c0-3.08-1.64-5.64-4.5-6.32V4c0-.83-.67-1.5-1.5-1.5s-1.5.67-1.5 1.5v.68c-.15.03-.29.08-.42.12-.1.03-.2.07-.3.11h-.01c-.01 0-.01 0-.02.01-.23.09-.46.2-.68.31 0 0-.01 0-.01.01L18 14.68z"/></symbol><symbol viewBox="0 0 20 20" id="outdoor_grill" xmlns="http://www.w3.org/2000/svg"><path fill="none" d="M0 0h20v20H0z"/><path d="M15.66 13.88c-.14-.21-.33-.4-.54-.54-.32-.21-.71-.34-1.12-.34s-.8.13-1.12.34c-.21.14-.4.33-.54.54-.03.04-.04.08-.06.12H7.72l1.36-2.09c.3.05.61.09.92.09s.62-.04.92-.09l.78 1.2c.22-.26.47-.49.76-.66l-.54-.83A5.01 5.01 0 0015 7H5a5.01 5.01 0 003.08 4.62l-3 4.61a.5.5 0 00.15.69.5.5 0 00.69-.15L7.07 15H12c0 1.1.9 2 2 2s2-.9 2-2c0-.41-.13-.8-.34-1.12zM14 16c-.55 0-1-.45-1-1s.45-1 1-1 1 .45 1 1-.45 1-1 1zM8.64 6h.51c.09-.69.14-.98-.53-1.77-.25-.31-.41-.47-.28-1.23h-.5c-.13.67.02 1.23.53 1.78.14.14.48.4.27 1.22zM10.14 6h.51c.09-.69.14-.98-.53-1.77-.25-.31-.41-.47-.28-1.23h-.5c-.13.67.02 1.23.53 1.78.14.14.48.4.27 1.22zM11.64 6h.51c.09-.69.14-.98-.53-1.77-.25-.3-.41-.47-.28-1.23h-.5c-.13.67.02 1.23.53 1.78.14.14.48.4.27 1.22z"/></symbol><symbol viewBox="0 0 20 20" id="park" xmlns="http://www.w3.org/2000/svg"><path fill="none" d="M0 0h20v20H0z"/><path d="M13 10h2L9.97 3 5 10h2l-3 4h5v3h2.03v-3H16z"/></symbol><symbol viewBox="0 0 24 24" id="people" xmlns="http://www.w3.org/2000/svg"><path d="M0 0h24v24H0z" fill="none"/><path d="M16 11c1.66 0 2.99-1.34 2.99-3S17.66 5 16 5c-1.66 0-3 1.34-3 3s1.34 3 3 3zm-8 0c1.66 0 2.99-1.34 2.99-3S9.66 5 8 5C6.34 5 5 6.34 5 8s1.34 3 3 3zm0 2c-2.33 0-7 1.17-7 3.5V19h14v-2.5c0-2.33-4.67-3.5-7-3.5zm8 0c-.29 0-.62.02-.97.05 1.16.84 1.97 1.97 1.97 3.45V19h6v-2.5c0-2.33-4.67-3.5-7-3.5z"/></symbol><symbol viewBox="0 0 24 24" id="person" xmlns="http://www.w3.org/2000/svg"><path d="M0 0h24v24H0z" fill="none"/><path d="M12 12c2.21 0 4-1.79 4-4s-1.79-4-4-4-4 1.79-4 4 1.79 4 4 4zm0 2c-2.67 0-8 1.34-8 4v2h16v-2c0-2.66-5.33-4-8-4z"/></symbol><symbol viewBox="0 0 24 24" id="pets" xmlns="http://www.w3.org/2000/svg"><path d="M0 0h24v24H0z" fill="none"/><circle cx="4.5" cy="9.5" r="2.5"/><circle cx="9" cy="5.5" r="2.5"/><circle cx="15" cy="5.5" r="2.5"/><circle cx="19.5" cy="9.5" r="2.5"/><path d="M17.34 14.86c-.87-1.02-1.6-1.89-2.48-2.91-.46-.54-1.05-1.08-1.75-1.32-.11-.04-.22-.07-.33-.09-.25-.04-.52-.04-.78-.04s-.53 0-.79.05c-.11.02-.22.05-.33.09-.7.24-1.28.78-1.75 1.32-.87 1.02-1.6 1.89-2.48 2.91-1.31 1.31-2.92 2.76-2.62 4.79.29 1.02 1.02 2.03 2.33 2.32.73.15 3.06-.44 5.54-.44h.18c2.48 0 4.81.58 5.54.44 1.31-.29 2.04-1.31 2.33-2.32.31-2.04-1.3-3.49-2.61-4.8z"/></symbol><symbol viewBox="0 0 24 24" id="phone" xmlns="http://www.w3.org/2000/svg"><path d="M0 0h24v24H0z" fill="none"/><path d="M6.62 10.79c1.44 2.83 3.76 5.14 6.59 6.59l2.2-2.2c.27-.27.67-.36 1.02-.24 1.12.37 2.33.57 3.57.57.55 0 1 .45 1 1V20c0 .55-.45 1-1 1-9.39 0-17-7.61-17-17 0-.55.45-1 1-1h3.5c.55 0 1 .45 1 1 0 1.25.2 2.45.57 3.57.11.35.03.74-.25 1.02l-2.2 2.2z"/></symbol><symbol viewBox="0 0 24 24" id="photo_camera" xmlns="http://www.w3.org/2000/svg"><path d="M0 0h24v24H0z" fill="none"/><circle cx="12" cy="12" r="3.2"/><path d="M9 2L7.17 4H4c-1.1 0-2 .9-2 2v12c0 1.1.9 2 2 2h16c1.1 0 2-.9 2-2V6c0-1.1-.9-2-2-2h-3.17L15 2H9zm3 15c-2.76 0-5-2.24-5-5s2.24-5 5-5 5 2.24 5 5-2.24 5-5 5z"/></symbol><symbol viewBox="0 0 24 24" id="pool" xmlns="http://www.w3.org/2000/svg"><path d="M0 0h24v24H0z" fill="none"/><path d="M22 21c-1.11 0-1.73-.37-2.18-.64-.37-.22-.6-.36-1.15-.36-.56 0-.78.13-1.15.36-.46.27-1.07.64-2.18.64s-1.73-.37-2.18-.64c-.37-.22-.6-.36-1.15-.36-.56 0-.78.13-1.15.36-.46.27-1.08.64-2.19.64-1.11 0-1.73-.37-2.18-.64-.37-.23-.6-.36-1.15-.36s-.78.13-1.15.36c-.46.27-1.08.64-2.19.64v-2c.56 0 .78-.13 1.15-.36.46-.27 1.08-.64 2.19-.64s1.73.37 2.18.64c.37.23.59.36 1.15.36.56 0 .78-.13 1.15-.36.46-.27 1.08-.64 2.19-.64 1.11 0 1.73.37 2.18.64.37.22.6.36 1.15.36s.78-.13 1.15-.36c.45-.27 1.07-.64 2.18-.64s1.73.37 2.18.64c.37.23.59.36 1.15.36v2zm0-4.5c-1.11 0-1.73-.37-2.18-.64-.37-.22-.6-.36-1.15-.36-.56 0-.78.13-1.15.36-.45.27-1.07.64-2.18.64s-1.73-.37-2.18-.64c-.37-.22-.6-.36-1.15-.36-.56 0-.78.13-1.15.36-.45.27-1.07.64-2.18.64s-1.73-.37-2.18-.64c-.37-.22-.6-.36-1.15-.36s-.78.13-1.15.36c-.47.27-1.09.64-2.2.64v-2c.56 0 .78-.13 1.15-.36.45-.27 1.07-.64 2.18-.64s1.73.37 2.18.64c.37.22.6.36 1.15.36.56 0 .78-.13 1.15-.36.45-.27 1.07-.64 2.18-.64s1.73.37 2.18.64c.37.22.6.36 1.15.36s.78-.13 1.15-.36c.45-.27 1.07-.64 2.18-.64s1.73.37 2.18.64c.37.22.6.36 1.15.36v2zM8.67 12c.56 0 .78-.13 1.15-.36.46-.27 1.08-.64 2.19-.64 1.11 0 1.73.37 2.18.64.37.22.6.36 1.15.36s.78-.13 1.15-.36c.12-.07.26-.15.41-.23L10.48 5C8.93 3.45 7.5 2.99 5 3v2.5c1.82-.01 2.89.39 4 1.5l1 1-3.25 3.25c.31.12.56.27.77.39.37.23.59.36 1.15.36z"/><circle cx="16.5" cy="5.5" r="2.5"/></symbol><symbol viewBox="0 0 24 24" id="power_settings_new" xmlns="http://www.w3.org/2000/svg"><path d="M0 0h24v24H0z" fill="none"/><path d="M13 3h-2v10h2V3zm4.83 2.17l-1.42 1.42A6.92 6.92 0 0119 12c0 3.87-3.13 7-7 7A6.995 6.995 0 017.58 6.58L6.17 5.17A8.932 8.932 0 003 12a9 9 0 0018 0c0-2.74-1.23-5.18-3.17-6.83z"/></symbol><symbol viewBox="0 0 24 24" id="pregnant_woman" xmlns="http://www.w3.org/2000/svg"><path fill="none" d="M0 0h24v24H0z"/><path d="M9 4c0-1.11.89-2 2-2s2 .89 2 2-.89 2-2 2-2-.89-2-2zm7 9a3.285 3.285 0 00-2-3c0-1.66-1.34-3-3-3s-3 1.34-3 3v7h2v5h3v-5h3v-4z"/></symbol><symbol viewBox="0 0 24 24" id="priority_high" xmlns="http://www.w3.org/2000/svg"><path d="M0 0h24v24H0z" fill="none"/><circle cx="12" cy="19" r="2"/><path d="M10 3h4v12h-4z"/></symbol><symbol viewBox="0 0 24 24" id="public" xmlns="http://www.w3.org/2000/svg"><path d="M0 0h24v24H0z" fill="none"/><path d="M12 2C6.48 2 2 6.48 2 12s4.48 10 10 10 10-4.48 10-10S17.52 2 12 2zm-1 17.93c-3.95-.49-7-3.85-7-7.93 0-.62.08-1.21.21-1.79L9 15v1c0 1.1.9 2 2 2v1.93zm6.9-2.54c-.26-.81-1-1.39-1.9-1.39h-1v-3c0-.55-.45-1-1-1H8v-2h2c.55 0 1-.45 1-1V7h2c1.1 0 2-.9 2-2v-.41c2.93 1.19 5 4.06 5 7.41 0 2.08-.8 3.97-2.1 5.39z"/></symbol><symbol viewBox="0 0 24 24" id="restaurant" xmlns="http://www.w3.org/2000/svg"><path d="M0 0h24v24H0z" fill="none"/><path d="M11 9H9V2H7v7H5V2H3v7c0 2.12 1.66 3.84 3.75 3.97V22h2.5v-9.03C11.34 12.84 13 11.12 13 9V2h-2v7zm5-3v8h2.5v8H21V2c-2.76 0-5 2.24-5 4z"/></symbol><symbol viewBox="0 0 24 24" id="rv_hookup" xmlns="http://www.w3.org/2000/svg"><path d="M0 0h24v24H0z" fill="none"/><path d="M14 11h4v3h-4z" fill="none"/><path d="M20 17v-6c0-1.1-.9-2-2-2H7V7l-3 3 3 3v-2h4v3H4v3c0 1.1.9 2 2 2h2c0 1.66 1.34 3 3 3s3-1.34 3-3h8v-2h-2zm-9 3c-.55 0-1-.45-1-1s.45-1 1-1 1 .45 1 1-.45 1-1 1zm7-6h-4v-3h4v3zM17 2v2H9v2h8v2l3-3z"/></symbol><symbol viewBox="0 0 24 24" id="sanitizer" xmlns="http://www.w3.org/2000/svg"><path fill="none" d="M0 0h24v24H0z"/><path d="M15.5 6.5C15.5 5.66 17 4 17 4s1.5 1.66 1.5 2.5c0 .83-.67 1.5-1.5 1.5s-1.5-.67-1.5-1.5zm4 8.5a2.5 2.5 0 002.5-2.5c0-1.67-2.5-4.5-2.5-4.5S17 10.83 17 12.5a2.5 2.5 0 002.5 2.5zM13 14h-2v-2H9v2H7v2h2v2h2v-2h2v-2zm3-2v10H4V12c0-2.97 2.16-5.43 5-5.91V4H7V2h6c1.13 0 2.15.39 2.99 1.01l-1.43 1.43C14.1 4.17 13.57 4 13 4h-2v2.09c2.84.48 5 2.94 5 5.91z"/></symbol><symbol viewBox="0 0 24 24" id="save_alt" xmlns="http://www.w3.org/2000/svg"><path d="M0 0h24v24H0z" fill="none"/><path d="M19 12v7H5v-7H3v7c0 1.1.9 2 2 2h14c1.1 0 2-.9 2-2v-7h-2zm-6 .67l2.59-2.58L17 11.5l-5 5-5-5 1.41-1.41L11 12.67V3h2z"/></symbol><symbol viewBox="0 0 24 24" id="schedule" xmlns="http://www.w3.org/2000/svg"><path d="M0 0h24v24H0z" fill="none"/><path d="M11.99 2C6.47 2 2 6.48 2 12s4.47 10 9.99 10C17.52 22 22 17.52 22 12S17.52 2 11.99 2zM12 20c-4.42 0-8-3.58-8-8s3.58-8 8-8 8 3.58 8 8-3.58 8-8 8z"/><path d="M12.5 7H11v6l5.25 3.15.75-1.23-4.5-2.67z"/></symbol><symbol viewBox="0 0 24 24" id="school" xmlns="http://www.w3.org/2000/svg"><path d="M0 0h24v24H0z" fill="none"/><path d="M5 13.18v4L12 21l7-3.82v-4L12 17l-7-3.82zM12 3L1 9l11 6 9-4.91V17h2V9L12 3z"/></symbol><symbol viewBox="0 0 24 24" id="search" xmlns="http://www.w3.org/2000/svg"><path d="M0 0h24v24H0z" fill="none"/><path d="M15.5 14h-.79l-.28-.27A6.471 6.471 0 0016 9.5 6.5 6.5 0 109.5 16c1.61 0 3.09-.59 4.23-1.57l.27.28v.79l5 4.99L20.49 19l-4.99-5zm-6 0C7.01 14 5 11.99 5 9.5S7.01 5 9.5 5 14 7.01 14 9.5 11.99 14 9.5 14z"/></symbol><symbol viewBox="0 0 24 24" id="security" xmlns="http://www.w3.org/2000/svg"><path d="M0 0h24v24H0z" fill="none"/><path d="M12 1L3 5v6c0 5.55 3.84 10.74 9 12 5.16-1.26 9-6.45 9-12V5l-9-4zm0 10.99h7c-.53 4.12-3.28 7.79-7 8.94V12H5V6.3l7-3.11v8.8z"/></symbol><symbol viewBox="0 0 24 24" id="send" xmlns="http://www.w3.org/2000/svg"><path d="M0 0h24v24H0z" fill="none"/><path d="M2.01 21L23 12 2.01 3 2 10l15 2-15 2z"/></symbol><symbol viewBox="0 0 24 24" id="sentiment_dissatisfied" xmlns="http://www.w3.org/2000/svg"><path d="M0 0h24v24H0V0z" fill="none"/><circle cx="15.5" cy="9.5" r="1.5"/><circle cx="8.5" cy="9.5" r="1.5"/><path d="M11.99 2C6.47 2 2 6.48 2 12s4.47 10 9.99 10C17.52 22 22 17.52 22 12S17.52 2 11.99 2zM12 20c-4.42 0-8-3.58-8-8s3.58-8 8-8 8 3.58 8 8-3.58 8-8 8zm0-3.5c.73 0 1.39.19 1.97.53.12-.14.86-.98 1.01-1.14A5.39 5.39 0 0012 15c-1.11 0-2.13.33-2.99.88.97 1.09.01.02 1.01 1.14.59-.33 1.25-.52 1.98-.52z"/></symbol><symbol viewBox="0 0 24 24" id="sentiment_neutral" xmlns="http://www.w3.org/2000/svg"><path d="M0 0h24v24H0V0z" fill="none"/><path d="M9 15.5h6v1H9v-1z"/><circle cx="15.5" cy="9.5" r="1.5"/><circle cx="8.5" cy="9.5" r="1.5"/><path d="M11.99 2C6.47 2 2 6.48 2 12s4.47 10 9.99 10C17.52 22 22 17.52 22 12S17.52 2 11.99 2zM12 20c-4.42 0-8-3.58-8-8s3.58-8 8-8 8 3.58 8 8-3.58 8-8 8z"/></symbol><symbol viewBox="0 0 24 24" id="sentiment_satisfied" xmlns="http://www.w3.org/2000/svg"><path d="M0 0h24v24H0V0z" fill="none"/><circle cx="15.5" cy="9.5" r="1.5"/><circle cx="8.5" cy="9.5" r="1.5"/><path d="M11.99 2C6.47 2 2 6.48 2 12s4.47 10 9.99 10C17.52 22 22 17.52 22 12S17.52 2 11.99 2zM12 20c-4.42 0-8-3.58-8-8s3.58-8 8-8 8 3.58 8 8-3.58 8-8 8zm0-4c-.73 0-1.38-.18-1.96-.52-.12.14-.86.98-1.01 1.15a5.49 5.49 0 005.95-.01c-.97-1.09-.01-.02-1.01-1.15-.59.35-1.24.53-1.97.53z"/></symbol><symbol viewBox="0 0 24 24" id="sentiment_satisfied_alt" xmlns="http://www.w3.org/2000/svg"><path d="M0 0h24v24H0V0z" fill="none"/><path d="M0 0h24v24H0V0z" fill="none"/><circle cx="15.5" cy="9.5" r="1.5"/><circle cx="8.5" cy="9.5" r="1.5"/><circle cx="15.5" cy="9.5" r="1.5"/><circle cx="8.5" cy="9.5" r="1.5"/><path d="M11.99 2C6.47 2 2 6.48 2 12s4.47 10 9.99 10C17.52 22 22 17.52 22 12S17.52 2 11.99 2zM12 20c-4.42 0-8-3.58-8-8s3.58-8 8-8 8 3.58 8 8-3.58 8-8 8zm0-2.5c2.33 0 4.32-1.45 5.12-3.5h-1.67c-.69 1.19-1.97 2-3.45 2s-2.75-.81-3.45-2H6.88c.8 2.05 2.79 3.5 5.12 3.5z"/></symbol><symbol viewBox="0 0 24 24" id="sentiment_very_dissatisfied" xmlns="http://www.w3.org/2000/svg"><path d="M0 0h24v24H0V0z" fill="none"/><circle cx="15.5" cy="9.5" r="1.5"/><circle cx="8.5" cy="9.5" r="1.5"/><path d="M11.99 2C6.47 2 2 6.48 2 12s4.47 10 9.99 10C17.52 22 22 17.52 22 12S17.52 2 11.99 2zM12 20c-4.42 0-8-3.58-8-8s3.58-8 8-8 8 3.58 8 8-3.58 8-8 8zm0-6c-2.33 0-4.32 1.45-5.12 3.5h1.67c.69-1.19 1.97-2 3.45-2s2.75.81 3.45 2h1.67c-.8-2.05-2.79-3.5-5.12-3.5z"/></symbol><symbol viewBox="0 0 24 24" id="settings" xmlns="http://www.w3.org/2000/svg"><path d="M0 0h24v24H0V0z" fill="none"/><path d="M19.14 12.94c.04-.3.06-.61.06-.94 0-.32-.02-.64-.07-.94l2.03-1.58a.49.49 0 00.12-.61l-1.92-3.32a.488.488 0 00-.59-.22l-2.39.96c-.5-.38-1.03-.7-1.62-.94l-.36-2.54a.484.484 0 00-.48-.41h-3.84c-.24 0-.43.17-.47.41l-.36 2.54c-.59.24-1.13.57-1.62.94l-2.39-.96c-.22-.08-.47 0-.59.22L2.74 8.87c-.12.21-.08.47.12.61l2.03 1.58c-.05.3-.09.63-.09.94s.02.64.07.94l-2.03 1.58a.49.49 0 00-.12.61l1.92 3.32c.12.22.37.29.59.22l2.39-.96c.5.38 1.03.7 1.62.94l.36 2.54c.05.24.24.41.48.41h3.84c.24 0 .44-.17.47-.41l.36-2.54c.59-.24 1.13-.56 1.62-.94l2.39.96c.22.08.47 0 .59-.22l1.92-3.32c.12-.22.07-.47-.12-.61l-2.01-1.58zM12 15.6c-1.98 0-3.6-1.62-3.6-3.6s1.62-3.6 3.6-3.6 3.6 1.62 3.6 3.6-1.62 3.6-3.6 3.6z"/></symbol><symbol viewBox="0 0 24 24" id="share" xmlns="http://www.w3.org/2000/svg"><path d="M0 0h24v24H0z" fill="none"/><path d="M18 16.08c-.76 0-1.44.3-1.96.77L8.91 12.7c.05-.23.09-.46.09-.7s-.04-.47-.09-.7l7.05-4.11c.54.5 1.25.81 2.04.81 1.66 0 3-1.34 3-3s-1.34-3-3-3-3 1.34-3 3c0 .24.04.47.09.7L8.04 9.81C7.5 9.31 6.79 9 6 9c-1.66 0-3 1.34-3 3s1.34 3 3 3c.79 0 1.5-.31 2.04-.81l7.12 4.16c-.05.21-.08.43-.08.65 0 1.61 1.31 2.92 2.92 2.92 1.61 0 2.92-1.31 2.92-2.92s-1.31-2.92-2.92-2.92z"/></symbol><symbol viewBox="0 0 24 24" id="shield" xmlns="http://www.w3.org/2000/svg"><path d="M0 0h24v24H0z" fill="none"/><path d="M12 1L3 5v6c0 5.55 3.84 10.74 9 12 5.16-1.26 9-6.45 9-12V5l-9-4z"/></symbol><symbol viewBox="0 0 24 24" id="shopping_basket" xmlns="http://www.w3.org/2000/svg"><path d="M0 0h24v24H0z" fill="none"/><path d="M17.21 9l-4.38-6.56a.993.993 0 00-.83-.42c-.32 0-.64.14-.83.43L6.79 9H2c-.55 0-1 .45-1 1 0 .09.01.18.04.27l2.54 9.27c.23.84 1 1.46 1.92 1.46h13c.92 0 1.69-.62 1.93-1.46l2.54-9.27L23 10c0-.55-.45-1-1-1h-4.79zM9 9l3-4.4L15 9H9zm3 8c-1.1 0-2-.9-2-2s.9-2 2-2 2 .9 2 2-.9 2-2 2z"/></symbol><symbol viewBox="0 0 24 24" id="smoke_free" xmlns="http://www.w3.org/2000/svg"><path d="M0 0h24v24H0z" fill="none"/><path d="M2 6l6.99 7H2v3h9.99l7 7 1.26-1.25-17-17zm18.5 7H22v3h-1.5zM18 13h1.5v3H18zm.85-8.12c.62-.61 1-1.45 1-2.38h-1.5c0 1.02-.83 1.85-1.85 1.85v1.5c2.24 0 4 1.83 4 4.07V12H22V9.92c0-2.23-1.28-4.15-3.15-5.04zM14.5 8.7h1.53c1.05 0 1.97.74 1.97 2.05V12h1.5v-1.59c0-1.8-1.6-3.16-3.47-3.16H14.5c-1.02 0-1.85-.98-1.85-2s.83-1.75 1.85-1.75V2a3.35 3.35 0 000 6.7zm2.5 7.23V13h-2.93z"/></symbol><symbol viewBox="0 0 24 24" id="smoking_rooms" xmlns="http://www.w3.org/2000/svg"><path d="M0 0h24v24H0z" fill="none"/><path d="M2 16h15v3H2zm18.5 0H22v3h-1.5zM18 16h1.5v3H18zm.85-8.27c.62-.61 1-1.45 1-2.38C19.85 3.5 18.35 2 16.5 2v1.5c1.02 0 1.85.83 1.85 1.85S17.52 7.2 16.5 7.2v1.5c2.24 0 4 1.83 4 4.07V15H22v-2.24c0-2.22-1.28-4.14-3.15-5.03zm-2.82 2.47H14.5c-1.02 0-1.85-.98-1.85-2s.83-1.75 1.85-1.75v-1.5a3.35 3.35 0 000 6.7h1.53c1.05 0 1.97.74 1.97 2.05V15h1.5v-1.64c0-1.81-1.6-3.16-3.47-3.16z"/></symbol><symbol viewBox="0 0 24 24" id="soap" xmlns="http://www.w3.org/2000/svg"><path fill="none" d="M0 0h24v24H0z"/><path d="M9.12 5l-7.18 6.79c-.6.56-.94 1.35-.94 2.18V20c0 1.66 1.34 3 3 3h13.75a1.25 1.25 0 000-2.5H12v-1h7.75a1.25 1.25 0 000-2.5H12v-1h8.75a1.25 1.25 0 000-2.5H12v-1h6.75a1.25 1.25 0 000-2.5H8.86c.64-1.11 1.48-2.58 1.49-2.61a1.065 1.065 0 00-.12-1.23C10.22 6.12 9.12 5 9.12 5zM14 6.25c.41 0 .75.34.75.75s-.34.75-.75.75-.75-.34-.75-.75.34-.75.75-.75m0-1.5c-1.24 0-2.25 1.01-2.25 2.25S12.76 9.25 14 9.25 16.25 8.24 16.25 7 15.24 4.75 14 4.75zm5.75.75c.28 0 .5.22.5.5s-.22.5-.5.5-.5-.22-.5-.5.22-.5.5-.5m0-1.5c-1.1 0-2 .9-2 2s.9 2 2 2 2-.9 2-2-.9-2-2-2zM16.5 1c-.83 0-1.5.67-1.5 1.5S15.67 4 16.5 4 18 3.33 18 2.5 17.33 1 16.5 1z"/></symbol><symbol viewBox="0 0 24 24" id="spellcheck" xmlns="http://www.w3.org/2000/svg"><path d="M0 0h24v24H0z" fill="none"/><path d="M12.45 16h2.09L9.43 3H7.57L2.46 16h2.09l1.12-3h5.64l1.14 3zm-6.02-5L8.5 5.48 10.57 11H6.43zm15.16.59l-8.09 8.09L9.83 16l-1.41 1.41 5.09 5.09L23 13l-1.41-1.41z"/></symbol><symbol viewBox="0 0 24 24" id="stairs" xmlns="http://www.w3.org/2000/svg"><path fill="none" d="M0 0h24v24H0z"/><path d="M19 3H5c-1.1 0-2 .9-2 2v14c0 1.1.9 2 2 2h14c1.1 0 2-.9 2-2V5c0-1.1-.9-2-2-2zm-1 5h-2.42v3.33H13v3.33h-2.58V18H6v-2h2.42v-3.33H11V9.33h2.58V6H18v2z"/></symbol><symbol viewBox="0 0 24 24" id="star" xmlns="http://www.w3.org/2000/svg"><path d="M0 0h24v24H0z" fill="none"/><path d="M0 0h24v24H0z" fill="none"/><path d="M12 17.27L18.18 21l-1.64-7.03L22 9.24l-7.19-.61L12 2 9.19 8.63 2 9.24l5.46 4.73L5.82 21z"/></symbol><symbol viewBox="0 0 24 24" id="star_outline" xmlns="http://www.w3.org/2000/svg"><path d="M22 9.24l-7.19-.62L12 2 9.19 8.63 2 9.24l5.46 4.73L5.82 21 12 17.27 18.18 21l-1.63-7.03L22 9.24zM12 15.4l-3.76 2.27 1-4.28-3.32-2.88 4.38-.38L12 6.1l1.71 4.04 4.38.38-3.32 2.88 1 4.28L12 15.4z"/></symbol><symbol viewBox="0 0 24 24" id="store" xmlns="http://www.w3.org/2000/svg"><path d="M0 0h24v24H0z" fill="none"/><path d="M20 4H4v2h16V4zm1 10v-2l-1-5H4l-1 5v2h1v6h10v-6h4v6h2v-6h1zm-9 4H6v-4h6v4z"/></symbol><symbol viewBox="0 0 24 24" id="stroller" xmlns="http://www.w3.org/2000/svg"><path fill="none" d="M0 0h24v24H0z"/><circle cx="16" cy="20" r="2"/><circle cx="6" cy="20" r="2"/><path d="M22 7v-.52C22 4.56 20.52 3 18.65 3c-1.66 0-2.54 1.27-3.18 2.03l-8.8 10.32C6.12 16 6.58 17 7.43 17H15c1.1 0 2-.9 2-2V6.27c.58-.68.97-1.27 1.65-1.27.77 0 1.35.66 1.35 1.48V7h2zM14.3 4.1a8.962 8.962 0 00-9.58.62l4.89 4.89L14.3 4.1z"/></symbol><symbol viewBox="0 0 20 20" id="support_agent" xmlns="http://www.w3.org/2000/svg"><path fill="none" d="M0 0h20v20H0z"/><path d="M10 6c-.68 0-3.88.51-3.99 3.88 1.72-.4 3.06-1.77 3.4-3.51.53 1.15 1.96 2.8 4.43 2.6A3.97 3.97 0 0010 6z"/><circle cx="7.5" cy="10.75" r=".75"/><circle cx="12.5" cy="10.75" r=".75"/><path d="M16 10c0-3.31-2.69-6-6-6s-6 2.69-6 6c-.55 0-1 .45-1 1v2c0 .55.45 1 1 1h1v-4c0-2.76 2.24-5 5-5s5 2.24 5 5v5H9v1h6c.55 0 1-.45 1-1v-1c.55 0 1-.45 1-1v-2c0-.55-.45-1-1-1z"/></symbol><symbol viewBox="0 0 24 24" id="tag" xmlns="http://www.w3.org/2000/svg"><path d="M20 10V8h-4V4h-2v4h-4V4H8v4H4v2h4v4H4v2h4v4h2v-4h4v4h2v-4h4v-2h-4v-4h4zm-6 4h-4v-4h4v4z"/></symbol><symbol viewBox="0 0 20 20" id="theater_comedy" xmlns="http://www.w3.org/2000/svg"><path fill="none" d="M0 0h20v20H0z"/><g fill-rule="evenodd"><path d="M10 4v4h2V9.57c.27-.34.84-.57 1.5-.57.92 0 1.67.45 1.67 1H12v1.65c.46.22.96.35 1.5.35 1.93 0 3.5-1.57 3.5-3.5V4h-7zm2 3.75c-.41 0-.75-.34-.75-.75s.34-.75.75-.75.75.34.75.75-.34.75-.75.75zm3 0c-.41 0-.75-.34-.75-.75s.34-.75.75-.75.75.34.75.75-.34.75-.75.75z"/><path d="M4 13.5C4 15.43 5.57 17 7.5 17s3.5-1.57 3.5-3.5V9H4v4.5zM7.5 15c-.92 0-1.67-.45-1.67-1h3.33c.01.55-.74 1-1.66 1zM9 11.25c.41 0 .75.34.75.75s-.34.75-.75.75-.75-.34-.75-.75.34-.75.75-.75zm-3 0c.41 0 .75.34.75.75s-.34.75-.75.75-.75-.34-.75-.75.34-.75.75-.75z"/></g></symbol><symbol viewBox="0 0 24 24" id="thumb_down_off_alt" xmlns="http://www.w3.org/2000/svg"><path d="M24 24H0V0h24v24z" fill="none"/><path d="M10.89 18.28l.57-2.89c.12-.59-.04-1.2-.42-1.66-.38-.46-.94-.73-1.54-.73H4v-1.08L6.57 6h8.09c.18 0 .34.16.34.34v7.84l-4.11 4.1M10 22l6.41-6.41c.38-.38.59-.89.59-1.42V6.34C17 5.05 15.95 4 14.66 4h-8.1c-.71 0-1.36.37-1.72.97l-2.67 6.15c-.11.25-.17.52-.17.8V13c0 1.1.9 2 2 2h5.5l-.92 4.65c-.05.22-.02.46.08.66.23.45.52.86.88 1.22L10 22zm10-7h2V4h-2c-.55 0-1 .45-1 1v9c0 .55.45 1 1 1z"/></symbol><symbol viewBox="0 0 24 24" id="thumb_up_alt" xmlns="http://www.w3.org/2000/svg"><path d="M24 24H0V0h24v24z" fill="none"/><path d="M2 20h2c.55 0 1-.45 1-1v-9c0-.55-.45-1-1-1H2v11zm19.83-7.12c.11-.25.17-.52.17-.8V11c0-1.1-.9-2-2-2h-5.5l.92-4.65c.05-.22.02-.46-.08-.66a4.8 4.8 0 00-.88-1.22L14 2 7.59 8.41C7.21 8.79 7 9.3 7 9.83v7.84A2.34 2.34 0 009.34 20h8.11c.7 0 1.36-.37 1.72-.97l2.66-6.15z"/></symbol><symbol viewBox="0 0 24 24" id="touch_app" xmlns="http://www.w3.org/2000/svg"><path fill="none" d="M0 0h24v24H0z"/><path d="M9 11.24V7.5a2.5 2.5 0 015 0v3.74c1.21-.81 2-2.18 2-3.74C16 5.01 13.99 3 11.5 3S7 5.01 7 7.5c0 1.56.79 2.93 2 3.74zm9.84 4.63l-4.54-2.26c-.17-.07-.35-.11-.54-.11H13v-6c0-.83-.67-1.5-1.5-1.5S10 6.67 10 7.5v10.74c-3.6-.76-3.54-.75-3.67-.75-.31 0-.59.13-.79.33l-.79.8 4.94 4.94c.27.27.65.44 1.06.44h6.79c.75 0 1.33-.55 1.44-1.28l.75-5.27c.01-.07.02-.14.02-.2 0-.62-.38-1.16-.91-1.38z"/></symbol><symbol viewBox="0 0 24 24" id="traffic" xmlns="http://www.w3.org/2000/svg"><path d="M0 0h24v24H0z" fill="none"/><path d="M20 10h-3V8.86c1.72-.45 3-2 3-3.86h-3V4c0-.55-.45-1-1-1H8c-.55 0-1 .45-1 1v1H4c0 1.86 1.28 3.41 3 3.86V10H4c0 1.86 1.28 3.41 3 3.86V15H4c0 1.86 1.28 3.41 3 3.86V20c0 .55.45 1 1 1h8c.55 0 1-.45 1-1v-1.14c1.72-.45 3-2 3-3.86h-3v-1.14c1.72-.45 3-2 3-3.86zm-8 9a2 2 0 11-.001-3.999A2 2 0 0112 19zm0-5a2 2 0 11-.001-3.999A2 2 0 0112 14zm0-5a2 2 0 01-2-2c0-1.11.89-2 2-2a2 2 0 110 4z"/></symbol><symbol viewBox="0 0 24 24" id="translate" xmlns="http://www.w3.org/2000/svg"><path d="M0 0h24v24H0z" fill="none"/><path d="M12.87 15.07l-2.54-2.51.03-.03A17.52 17.52 0 0014.07 6H17V4h-7V2H8v2H1v1.99h11.17C11.5 7.92 10.44 9.75 9 11.35 8.07 10.32 7.3 9.19 6.69 8h-2c.73 1.63 1.73 3.17 2.98 4.56l-5.09 5.02L4 19l5-5 3.11 3.11.76-2.04zM18.5 10h-2L12 22h2l1.12-3h4.75L21 22h2l-4.5-12zm-2.62 7l1.62-4.33L19.12 17h-3.24z"/></symbol><symbol viewBox="0 0 24 24" id="trending_down" xmlns="http://www.w3.org/2000/svg"><path d="M0 0h24v24H0z" fill="none"/><path d="M16 18l2.29-2.29-4.88-4.88-4 4L2 7.41 3.41 6l6 6 4-4 6.3 6.29L22 12v6z"/></symbol><symbol viewBox="0 0 24 24" id="trending_up" xmlns="http://www.w3.org/2000/svg"><path d="M0 0h24v24H0z" fill="none"/><path d="M16 6l2.29 2.29-4.88 4.88-4-4L2 16.59 3.41 18l6-6 4 4 6.3-6.29L22 12V6z"/></symbol><symbol viewBox="0 0 24 24" id="unfold_less" xmlns="http://www.w3.org/2000/svg"><path d="M0 0h24v24H0z" fill="none"/><path d="M7.41 18.59L8.83 20 12 16.83 15.17 20l1.41-1.41L12 14l-4.59 4.59zm9.18-13.18L15.17 4 12 7.17 8.83 4 7.41 5.41 12 10l4.59-4.59z"/></symbol><symbol viewBox="0 0 24 24" id="unfold_more" xmlns="http://www.w3.org/2000/svg"><path d="M0 0h24v24H0z" fill="none"/><path d="M12 5.83L15.17 9l1.41-1.41L12 3 7.41 7.59 8.83 9 12 5.83zm0 12.34L8.83 15l-1.41 1.41L12 21l4.59-4.59L15.17 15 12 18.17z"/></symbol><symbol viewBox="0 0 20 20" id="verified" xmlns="http://www.w3.org/2000/svg"><path fill="none" d="M0 0h20v20H0z"/><path d="M18 10l-1.77-2.03.25-2.69-2.63-.6-1.37-2.32L10 3.43 7.53 2.36 6.15 4.68l-2.62.6.25 2.69L2 10l1.77 2.03-.25 2.69 2.63.6 1.37 2.32L10 16.56l2.47 1.07 1.37-2.32 2.63-.6-.25-2.69L18 10zm-9.41 3.07l-2.12-2.12.71-.71 1.41 1.41 4.24-4.24.71.71-4.95 4.95z"/></symbol><symbol viewBox="0 0 24 24" id="verified_user" xmlns="http://www.w3.org/2000/svg"><path d="M0 0h24v24H0z" fill="none"/><path d="M12 1L3 5v6c0 5.55 3.84 10.74 9 12 5.16-1.26 9-6.45 9-12V5l-9-4zm-2 16l-4-4 1.41-1.41L10 14.17l6.59-6.59L18 9l-8 8z"/></symbol><symbol viewBox="0 0 24 24" id="visibility" xmlns="http://www.w3.org/2000/svg"><path d="M0 0h24v24H0z" fill="none"/><path d="M12 4.5C7 4.5 2.73 7.61 1 12c1.73 4.39 6 7.5 11 7.5s9.27-3.11 11-7.5c-1.73-4.39-6-7.5-11-7.5zM12 17c-2.76 0-5-2.24-5-5s2.24-5 5-5 5 2.24 5 5-2.24 5-5 5zm0-8c-1.66 0-3 1.34-3 3s1.34 3 3 3 3-1.34 3-3-1.34-3-3-3z"/></symbol><symbol viewBox="0 0 24 24" id="visibility_off" xmlns="http://www.w3.org/2000/svg"><path d="M0 0h24v24H0zm0 0h24v24H0zm0 0h24v24H0zm0 0h24v24H0z" fill="none"/><path d="M12 7c2.76 0 5 2.24 5 5 0 .65-.13 1.26-.36 1.83l2.92 2.92c1.51-1.26 2.7-2.89 3.43-4.75-1.73-4.39-6-7.5-11-7.5-1.4 0-2.74.25-3.98.7l2.16 2.16C10.74 7.13 11.35 7 12 7zM2 4.27l2.28 2.28.46.46A11.804 11.804 0 001 12c1.73 4.39 6 7.5 11 7.5 1.55 0 3.03-.3 4.38-.84l.42.42L19.73 22 21 20.73 3.27 3 2 4.27zM7.53 9.8l1.55 1.55c-.05.21-.08.43-.08.65 0 1.66 1.34 3 3 3 .22 0 .44-.03.65-.08l1.55 1.55c-.67.33-1.41.53-2.2.53-2.76 0-5-2.24-5-5 0-.79.2-1.53.53-2.2zm4.31-.78l3.15 3.15.02-.16c0-1.66-1.34-3-3-3l-.17.01z"/></symbol><symbol viewBox="0 0 24 24" id="volume_off" xmlns="http://www.w3.org/2000/svg"><path d="M0 0h24v24H0z" fill="none"/><path d="M16.5 12A4.5 4.5 0 0014 7.97v2.21l2.45 2.45c.03-.2.05-.41.05-.63zm2.5 0c0 .94-.2 1.82-.54 2.64l1.51 1.51A8.796 8.796 0 0021 12c0-4.28-2.99-7.86-7-8.77v2.06c2.89.86 5 3.54 5 6.71zM4.27 3L3 4.27 7.73 9H3v6h4l5 5v-6.73l4.25 4.25c-.67.52-1.42.93-2.25 1.18v2.06a8.99 8.99 0 003.69-1.81L19.73 21 21 19.73l-9-9L4.27 3zM12 4L9.91 6.09 12 8.18V4z"/></symbol><symbol viewBox="0 0 20 20" id="volunteer_activism" xmlns="http://www.w3.org/2000/svg"><path fill="none" d="M0 0h20v20H0z"/><path d="M2 9h3v8H2zM13 10.33c2.06-1.87 4-3.62 4-5.14C17 3.97 16.03 3 14.8 3c-.7 0-1.36.32-1.8.84-.44-.52-1.1-.84-1.8-.84C9.97 3 9 3.97 9 5.2c0 1.51 1.94 3.26 4 5.13zM15 13h-4l-2.08-.8.36-.93 1.9.73h1.22c.33 0 .59-.26.59-.59 0-.25-.15-.47-.38-.55L7.69 9H6v6.58L11.28 17 17 15c0-1.1-.9-2-2-2z"/></symbol><symbol viewBox="0 0 24 24" id="warning" xmlns="http://www.w3.org/2000/svg"><path d="M0 0h24v24H0z" fill="none"/><path d="M1 21h22L12 2 1 21zm12-3h-2v-2h2v2zm0-4h-2v-4h2v4z"/></symbol><symbol viewBox="0 0 24 24" id="wash" xmlns="http://www.w3.org/2000/svg"><path fill="none" d="M0 0h24v24H0z"/><path d="M18.5 8A2.5 2.5 0 0021 5.5C21 3.83 18.5 1 18.5 1S16 3.83 16 5.5A2.5 2.5 0 0018.5 8zm-5 1c.83 0 1.5-.67 1.5-1.5 0-.84-1.5-2.5-1.5-2.5S12 6.66 12 7.5c0 .83.67 1.5 1.5 1.5zM9.12 5l-7.18 6.79c-.6.56-.94 1.35-.94 2.18V20c0 1.66 1.34 3 3 3h13.75a1.25 1.25 0 000-2.5H12v-1h7.75a1.25 1.25 0 000-2.5H12v-1h8.75a1.25 1.25 0 000-2.5H12v-1h6.75a1.25 1.25 0 000-2.5H8.86c.64-1.11 1.48-2.58 1.49-2.61a1.065 1.065 0 00-.12-1.23C10.22 6.12 9.12 5 9.12 5z"/></symbol><symbol viewBox="0 0 24 24" id="wb_sunny" xmlns="http://www.w3.org/2000/svg"><path d="M0 0h24v24H0z" fill="none"/><path d="M6.76 4.84l-1.8-1.79-1.41 1.41 1.79 1.79 1.42-1.41zM4 10.5H1v2h3v-2zm9-9.95h-2V3.5h2V.55zm7.45 3.91l-1.41-1.41-1.79 1.79 1.41 1.41 1.79-1.79zm-3.21 13.7l1.79 1.8 1.41-1.41-1.8-1.79-1.4 1.4zM20 10.5v2h3v-2h-3zm-8-5c-3.31 0-6 2.69-6 6s2.69 6 6 6 6-2.69 6-6-2.69-6-6-6zm-1 16.95h2V19.5h-2v2.95zm-7.45-3.91l1.41 1.41 1.79-1.8-1.41-1.41-1.79 1.8z"/></symbol><symbol viewBox="0 0 24 24" id="wc" xmlns="http://www.w3.org/2000/svg"><path d="M0 0h24v24H0V0z" fill="none"/><path d="M5.5 22v-7.5H4V9c0-1.1.9-2 2-2h3c1.1 0 2 .9 2 2v5.5H9.5V22h-4zM18 22v-6h3l-2.54-7.63A2.01 2.01 0 0016.56 7h-.12a2 2 0 00-1.9 1.37L12 16h3v6h3zM7.5 6c1.11 0 2-.89 2-2s-.89-2-2-2-2 .89-2 2 .89 2 2 2zm9 0c1.11 0 2-.89 2-2s-.89-2-2-2-2 .89-2 2 .89 2 2 2z"/></symbol><symbol viewBox="0 0 24 24" id="wheelchair_pickup" xmlns="http://www.w3.org/2000/svg"><path fill="none" d="M0 0h24v24H0z"/><path d="M4.5 4c0-1.11.89-2 2-2s2 .89 2 2-.89 2-2 2-2-.89-2-2zm5.5 6.95V9c0-1.1-.9-2-2-2H5c-1.1 0-2 .9-2 2v6h2v7h3.5v-.11c-1.24-1.26-2-2.99-2-4.89 0-2.58 1.41-4.84 3.5-6.05zM16.5 17c0 1.65-1.35 3-3 3s-3-1.35-3-3c0-1.11.61-2.06 1.5-2.58v-2.16c-2.02.64-3.5 2.51-3.5 4.74 0 2.76 2.24 5 5 5s5-2.24 5-5h-2zm3.04-3H15V8h-2v8h5.46l2.47 3.71 1.66-1.11-3.05-4.6z"/></symbol><symbol viewBox="0 0 24 24" id="wifi" xmlns="http://www.w3.org/2000/svg"><path d="M0 0h24v24H0z" fill="none"/><path d="M1 9l2 2c4.97-4.97 13.03-4.97 18 0l2-2C16.93 2.93 7.08 2.93 1 9zm8 8l3 3 3-3a4.237 4.237 0 00-6 0zm-4-4l2 2a7.074 7.074 0 0110 0l2-2C15.14 9.14 8.87 9.14 5 13z"/></symbol><symbol viewBox="0 0 24 24" id="work" xmlns="http://www.w3.org/2000/svg"><path d="M0 0h24v24H0z" fill="none"/><path d="M20 6h-4V4c0-1.11-.89-2-2-2h-4c-1.11 0-2 .89-2 2v2H4c-1.11 0-1.99.89-1.99 2L2 19c0 1.11.89 2 2 2h16c1.11 0 2-.89 2-2V8c0-1.11-.89-2-2-2zm-6 0h-4V4h4v2z"/></symbol></svg>